<svg width="25" height="24" viewBox="0 0 25 24" fill="none" xmlns="http://www.w3.org/2000/svg">
<g clip-path="url(#clip0_11_794)">
<path d="M19.814 3.41708C20.4815 3.69364 21.0879 4.099 21.5987 4.60999C22.1097 5.12075 22.515 5.72718 22.7916 6.39464C23.0681 7.0621 23.2105 7.77751 23.2105 8.49999C23.2105 9.22248 23.0681 9.93789 22.7916 10.6053C22.515 11.2728 22.1097 11.8792 21.5987 12.39L20.5387 13.45L12.7587 21.23L4.97866 13.45L3.91866 12.39C2.88697 11.3583 2.30737 9.95903 2.30737 8.49999C2.30737 7.04096 2.88697 5.64169 3.91866 4.60999C4.95036 3.5783 6.34963 2.9987 7.80866 2.9987C9.2677 2.9987 10.667 3.5783 11.6987 4.60999L12.7587 5.66999L13.8187 4.60999C14.3294 4.099 14.9359 3.69364 15.6033 3.41708C16.2708 3.14052 16.9862 2.99817 17.7087 2.99817C18.4312 2.99817 19.1466 3.14052 19.814 3.41708Z" stroke="#333538" stroke-width="2" stroke-linecap="round" stroke-linejoin="round"/>
</g>
<defs>
<clipPath id="clip0_11_794">
<rect width="24" height="24" fill="white" transform="translate(0.758667)"/>
</clipPath>
</defs>
</svg>
