<svg width="25" height="24" viewBox="0 0 25 24" fill="none" xmlns="http://www.w3.org/2000/svg">
<path d="M12.7587 23C12.7587 23 21.7587 17 21.7587 10C21.7587 7.61305 20.8105 5.32387 19.1226 3.63604C17.4348 1.94821 15.1456 1 12.7587 1C10.3717 1 8.08253 1.94821 6.39471 3.63604C4.70688 5.32387 3.75867 7.61305 3.75867 10C3.75867 17 12.7587 23 12.7587 23Z" stroke="#333538" stroke-width="2" stroke-linecap="round" stroke-linejoin="round"/>
<path d="M12.7587 13C14.4155 13 15.7587 11.6569 15.7587 10C15.7587 8.34315 14.4155 7 12.7587 7C11.1018 7 9.75867 8.34315 9.75867 10C9.75867 11.6569 11.1018 13 12.7587 13Z" stroke="#333538" stroke-width="2" stroke-linecap="round" stroke-linejoin="round"/>
</svg>
