<svg width="25" height="24" viewBox="0 0 25 24" fill="none" xmlns="http://www.w3.org/2000/svg">
<path d="M18.7587 8C20.4155 8 21.7587 6.65685 21.7587 5C21.7587 3.34315 20.4155 2 18.7587 2C17.1018 2 15.7587 3.34315 15.7587 5C15.7587 6.65685 17.1018 8 18.7587 8Z" stroke="currentColor" stroke-width="2" stroke-linecap="round" stroke-linejoin="round"/>
<path d="M6.75867 15C8.41552 15 9.75867 13.6569 9.75867 12C9.75867 10.3431 8.41552 9 6.75867 9C5.10181 9 3.75867 10.3431 3.75867 12C3.75867 13.6569 5.10181 15 6.75867 15Z" stroke="currentColor" stroke-width="2" stroke-linecap="round" stroke-linejoin="round"/>
<path d="M18.7587 22C20.4155 22 21.7587 20.6569 21.7587 19C21.7587 17.3431 20.4155 16 18.7587 16C17.1018 16 15.7587 17.3431 15.7587 19C15.7587 20.6569 17.1018 22 18.7587 22Z" stroke="currentColor" stroke-width="2" stroke-linecap="round" stroke-linejoin="round"/>
<path d="M9.34869 13.51L16.1787 17.49" stroke="currentColor" stroke-width="2" stroke-linecap="round" stroke-linejoin="round"/>
<path d="M16.1687 6.51L9.34869 10.49" stroke="currentColor" stroke-width="2" stroke-linecap="round" stroke-linejoin="round"/>
</svg>
