<svg width="25" height="24" viewBox="0 0 25 24" fill="none" xmlns="http://www.w3.org/2000/svg">
<path d="M3.75867 6L6.75867 2H18.7587L21.7587 6V20C21.7587 20.5304 21.548 21.0391 21.1729 21.4142C20.7978 21.7893 20.2891 22 19.7587 22H5.75867C5.22823 22 4.71953 21.7893 4.34445 21.4142C3.96938 21.0391 3.75867 20.5304 3.75867 20V6Z" stroke="currentColor" stroke-width="2" stroke-linecap="round" stroke-linejoin="round"/>
<path d="M3.75867 6H21.7587" stroke="currentColor" stroke-width="2" stroke-linecap="round" stroke-linejoin="round"/>
<path d="M16.7587 10C16.7587 11.0609 16.3372 12.0783 15.5871 12.8284C14.8369 13.5786 13.8195 14 12.7587 14C11.6978 14 10.6804 13.5786 9.93024 12.8284C9.18009 12.0783 8.75867 11.0609 8.75867 10" stroke="currentColor" stroke-width="2" stroke-linecap="round" stroke-linejoin="round"/>
</svg>
