<svg width="32" height="32" viewBox="0 0 32 32" fill="none" xmlns="http://www.w3.org/2000/svg">
<g clip-path="url(#clip0_95_1350)">
<path d="M6.53133 9.6333V30.3629C6.53133 30.8644 6.93796 31.2711 7.43953 31.2711H12.359C12.534 31.2711 12.7052 31.2205 12.8522 31.1255C12.9991 31.0304 13.1155 30.8949 13.1872 30.7353C13.7727 29.4336 15.072 28.5925 16.4974 28.5925C17.9228 28.5925 19.2221 29.4336 19.8076 30.7353C19.8793 30.895 19.9957 31.0304 20.1426 31.1255C20.2896 31.2205 20.4608 31.2711 20.6358 31.2711H25.5553C26.0569 31.2711 26.4635 30.8644 26.4635 30.3629V9.6333H6.53133Z" fill="currentColor"/>
<path d="M25.5554 0.305908H20.6359C20.4609 0.305898 20.2896 0.356454 20.1427 0.451496C19.9957 0.546537 19.8794 0.682015 19.8076 0.841627C19.2222 2.14332 17.9229 2.98438 16.4975 2.98438C15.0721 2.98438 13.7727 2.14326 13.1873 0.841566C13.1155 0.681974 12.9991 0.54652 12.8522 0.451493C12.7052 0.356466 12.534 0.305911 12.359 0.305908H7.43953C6.93796 0.305908 6.53133 0.712541 6.53133 1.21411V7.85174H26.4636V1.21411C26.4636 0.712541 26.057 0.305908 25.5554 0.305908Z" fill="currentColor"/>
</g>
<defs>
<clipPath id="clip0_95_1350">
<rect width="31" height="31" fill="white" transform="translate(0.997467 0.305908)"/>
</clipPath>
</defs>
</svg>
