<svg width="25" height="24" viewBox="0 0 25 24" fill="none" xmlns="http://www.w3.org/2000/svg">
<g clip-path="url(#clip0_36_613)">
<path d="M24.6134 15.2267L9.53198 0.145262C9.33824 -0.0484208 9.02418 -0.0484208 8.83044 0.145262L7.71725 1.2584C7.57303 1.40267 7.53179 1.62053 7.61338 1.80749C7.89598 2.4554 7.99524 3.16705 7.90032 3.86553C7.78694 4.70051 7.41113 5.45763 6.81375 6.05507C6.2163 6.65246 5.45918 7.02827 4.62421 7.14164C3.92578 7.23651 3.21412 7.13725 2.56622 6.85464C2.37926 6.77311 2.1614 6.81435 2.01712 6.95857L0.90393 8.07171C0.710246 8.26545 0.710246 8.57951 0.90393 8.77325L15.9853 23.8546C16.1791 24.0483 16.4932 24.0483 16.6869 23.8546L17.8 22.7416C17.9442 22.5972 17.9855 22.3794 17.9039 22.1925C17.6213 21.5445 17.5221 20.8328 17.617 20.1344C17.7304 19.2994 18.1061 18.5423 18.7036 17.9449C19.301 17.3475 20.0581 16.9717 20.8931 16.8583C21.5915 16.7634 22.3032 16.8627 22.951 17.1453C23.1381 17.2269 23.3559 17.1857 23.5002 17.0414L24.6133 15.9283C24.8071 15.7345 24.8071 15.4204 24.6134 15.2267ZM18.8015 13.9434L14.7021 18.0429C14.5343 18.2106 14.2624 18.2106 14.0947 18.0429L6.71588 10.6638C6.54815 10.4962 6.54815 10.2242 6.71588 10.0565L10.8152 5.95709C10.983 5.78936 11.255 5.78936 11.4226 5.95709L18.8016 13.336C18.9693 13.5038 18.9693 13.7757 18.8015 13.9434Z" fill="currentColor"/>
</g>
<defs>
<clipPath id="clip0_36_613">
<rect width="24" height="24" fill="white" transform="translate(0.758667)"/>
</clipPath>
</defs>
</svg>
