<svg width="46" height="15" viewBox="0 0 46 15" fill="none" xmlns="http://www.w3.org/2000/svg">
<g clip-path="url(#clip0_77_1011)">
<path d="M20.219 13.8537H16.5988L18.8664 0.307861H22.5066L20.219 13.8537Z" fill="#00579F"/>
<path d="M33.4073 0.633624C32.6912 0.365391 31.5573 0.0588379 30.145 0.0588379C26.5446 0.0588379 24.0184 1.89815 23.9985 4.54217C23.9786 6.49645 25.8086 7.56938 27.1811 8.22081C28.5935 8.89139 29.0709 9.3129 29.0709 9.90685C29.051 10.8073 27.937 11.2289 26.8828 11.2289C25.4307 11.2289 24.6549 11.0181 23.4614 10.5008L22.984 10.29L22.5066 13.3364C23.3619 13.7196 24.9334 14.0453 26.5645 14.0645C30.3837 14.0645 32.8702 12.2443 32.8901 9.42786C32.91 7.87593 31.9353 6.7072 29.8267 5.73006C28.5537 5.11696 27.7779 4.69545 27.7779 4.06318C27.7978 3.4884 28.4343 2.89445 29.8665 2.89445C31.0401 2.85613 31.9154 3.14353 32.5718 3.41176L32.91 3.56504L33.4073 0.633624Z" fill="#00579F"/>
<path d="M38.2409 9.06377C38.5393 8.27823 39.693 5.27018 39.693 5.27018C39.6731 5.3085 39.9914 4.48464 40.1704 3.96733L40.429 5.13607C40.429 5.13607 41.1252 8.37403 41.2645 9.06377H38.2409ZM42.7365 0.307861H39.9317C39.0565 0.307861 38.4001 0.556935 38.0221 1.43827L32.6116 13.8728H36.4308C36.4308 13.8728 37.0673 12.2059 37.1867 11.8419H41.8612C41.9607 12.3209 42.2988 13.8728 42.2988 13.8728H45.6605L42.7365 0.307861Z" fill="#00579F"/>
<path d="M13.5553 0.307861L9.99471 9.54276L9.59687 7.66512C8.94045 5.51926 6.87171 3.16263 4.56427 1.9939L7.82651 13.8345H11.6656L17.3944 0.307861H13.5553Z" fill="#00579F"/>
<path d="M6.67279 0.307861H0.824629L0.764954 0.576095C5.34005 1.70651 8.36359 4.408 9.59687 7.66513L8.3238 1.43827C8.12489 0.576095 7.46846 0.327021 6.67279 0.307861Z" fill="#FAA61A"/>
<path d="M44.28 0.934989H44.2441V0.731714H44.28C44.3743 0.731714 44.4237 0.761989 44.4237 0.831189C44.4237 0.904714 44.3698 0.934989 44.28 0.934989ZM44.6213 0.831189C44.6213 0.675489 44.5135 0.588989 44.3114 0.588989H44.0465V1.38046H44.2441V1.07339L44.4731 1.38046H44.7111L44.4417 1.05609C44.5584 1.02149 44.6213 0.939314 44.6213 0.831189Z" fill="#00579F"/>
<path d="M44.3474 1.5491C44.0331 1.5491 43.7771 1.29825 43.7771 0.982526C43.7771 0.666802 44.0331 0.415952 44.3474 0.415952C44.6572 0.415952 44.9132 0.675452 44.9132 0.982526C44.9132 1.29393 44.6572 1.5491 44.3474 1.5491ZM44.3519 0.290527C43.9523 0.290527 43.629 0.597602 43.629 0.978201C43.629 1.36745 43.9523 1.67453 44.3519 1.67453C44.7381 1.67453 45.0614 1.36313 45.0614 0.978201C45.0614 0.601927 44.7381 0.290527 44.3519 0.290527Z" fill="#00579F"/>
</g>
<defs>
<clipPath id="clip0_77_1011">
<rect width="45" height="14" fill="white" transform="translate(0.720703 0.0614014)"/>
</clipPath>
</defs>
</svg>
