<?xml version="1.0" encoding="utf-8"?>
<!-- Generator: Adobe Illustrator 25.0.1, SVG Export Plug-In . SVG Version: 6.00 Build 0)  -->
<svg version="1.1" id="Layer_1" xmlns="http://www.w3.org/2000/svg" xmlns:xlink="http://www.w3.org/1999/xlink" x="0px" y="0px"
	 viewBox="0 0 249.3 151.7" style="enable-background:new 0 0 249.3 151.7;" xml:space="preserve">
<style type="text/css">
	.st0{fill:#fff;}
	.st1{fill:#fff;}
</style>
<g>
	<path class="st0" d="M82.1,4C103.7,43.5,105,91.7,105,91.7C112.6,41.4,82.1,4,82.1,4z"/>
	<path class="st0" d="M135.9,25.8c-25.2,21.5-26.1,54.4-26.1,54.4C116,50.4,135.9,25.8,135.9,25.8z"/>
	<path class="st0" d="M110,61.2"/>
	<path class="st1" d="M94.9-64.3"/>
	<path class="st0" d="M102.7,88.3"/>
	<path class="st0" d="M106,93"/>
	<path class="st1" d="M-34.4-43.6"/>
	<path class="st0" d="M109,90.6"/>
	<path class="st0" d="M129.6,101.9"/>
	<path class="st0" d="M127.3,108"/>
	<path class="st0" d="M148.1,43.2c21-21,50.6-29.7,50.6-29.7C166.4,16.4,148.1,43.2,148.1,43.2z"/>
	<path class="st0" d="M244.1,64.4c-72.9-14.6-128.8,32.8-128.8,32.8C173.8,64.3,244.1,64.4,244.1,64.4z"/>
	<path class="st0" d="M123.2,97.6c41.8-11.9,86.4-0.9,86.4-0.9C165.3,76.1,123.2,97.6,123.2,97.6z"/>
	<path class="st0" d="M113.3,93.5c39-42.6,95.7-61.8,95.7-61.8C146.6,39.9,113.3,93.5,113.3,93.5z"/>
	<path class="st0" d="M124.2,110.3"/>
	<path class="st0" d="M107,98.9"/>
	<path class="st0" d="M197.9,119.6"/>
	<path class="st0" d="M216.7,67.9"/>
	<path class="st0" d="M176.5,7.5c-52.6,26.8-66.8,84.3-66.8,84.3C132,42.2,176.5,7.5,176.5,7.5z"/>
	<path class="st0" d="M106.6,103"/>
	<path class="st0" d="M73.7,89.5"/>
	<path class="st0" d="M108.2,109.5"/>
	<path class="st0" d="M106.9,105.7"/>
</g>
<g>
	<path class="st0" d="M38.8,135.4c0.1,0.3,0,0.5-0.4,0.6c-0.3,0.1-0.8,0.1-1.2,0c-0.5-0.1-1-0.3-1.5-0.5c-0.5-0.2-0.9-0.4-1.1-0.7
		c-0.5-0.7-0.7-1.6-0.7-2.6c0-0.8,0.1-1.5,0.4-2.4c0.2-0.8,0.5-1.6,0.9-2.4c0.4-0.8,0.8-1.5,1.2-2.2c0.4-0.7,0.9-1.2,1.3-1.6h-0.1
		c1.9-2,4-3.6,6.3-4.9c2.3-1.3,4.7-2.4,7.3-3.4c0.9-1.9,1.8-3.7,2.8-5.5c1-1.8,1.9-3.6,2.9-5.4c0.6-1.2,1.3-2.4,1.9-3.6
		c0.6-1.2,1.2-2.3,1.8-3.5c-1.3,0.2-2.6,0.5-3.9,0.7c-1.3,0.3-2.5,0.6-3.8,0.9c-1.4,0.4-3,1-4.8,1.8c-1.8,0.8-3.6,1.7-5.2,2.9
		c-1.7,1.1-3.1,2.3-4.2,3.7c-1.2,1.3-1.7,2.8-1.7,4.3c0,1,0.3,2.1,0.8,3.1c0.6,1,1.5,2.1,2.9,3.1H41c0.1,0.2-0.1,0.3-0.6,0.4
		c-0.5,0.1-1.1,0.2-1.8,0.2c-0.9,0-2-0.2-3.1-0.5c-1.1-0.3-2.1-0.8-2.8-1.6c-0.4-0.7-0.7-1.4-1-2.1c-0.3-0.7-0.4-1.4-0.4-2.1
		c0-1,0.2-2.2,0.6-3.8c0.7-2.5,2-4.7,4-6.5c2-1.9,4.4-3.5,7.2-4.8c2.8-1.4,5.9-2.5,9.2-3.4s6.8-1.7,10.2-2.3
		c3.5-0.6,6.8-1.1,10.2-1.5c3.3-0.4,6.3-0.7,9.1-1c2.4-0.3,4.5-0.5,6.3-0.7c1.8-0.2,3.3-0.6,4.4-1c0.1,0.5,0.2,1.1,0.1,1.9
		c-0.1,0.8-0.3,1.5-0.5,2.3c-0.3,0.8-0.5,1.4-0.9,2c-0.3,0.6-0.6,0.9-0.9,0.9l-7.2,0.6c-3.4,0.3-6.8,0.6-10.3,0.9
		c-3.5,0.3-7,0.8-10.5,1.4c0.4,0.2,0.9,0.5,1.5,0.9c0.5,0.4,1,0.8,1.5,1.2s0.8,0.8,1,1.2c0.3,0.4,0.3,0.7,0.3,0.9
		c-0.8,2-1.8,4-2.8,5.9c-1.1,2-2.2,3.9-3.3,5.9c1.8-0.4,3.5-0.7,5.3-1c1.8-0.3,3.6-0.6,5.4-0.9c1.5-0.2,3-0.4,4.5-0.7
		c1.5-0.3,2.9-0.5,4.3-0.8c0.2,0.1,0.3,0.4,0.1,0.9c-0.1,0.5-0.4,1.1-0.7,1.8c-0.3,0.6-0.6,1.2-1,1.7c-0.4,0.5-0.7,0.8-0.9,0.8
		l-2.6,0.2c-2.4,0.2-5.1,0.4-8,0.8c-2.9,0.3-5.9,0.8-9,1.5c-0.8,1.4-1.5,2.8-2.3,4.2c-0.7,1.4-1.4,2.9-2,4.4
		c-0.6,1.5-1.1,3.1-1.5,4.7c-0.4,1.6-0.7,3.3-0.8,5.1c-0.1,0.8,0,1.5,0.3,2.1c0.3,0.6,0.6,1,1.1,1.4c0.5,0.4,1.1,0.6,1.8,0.8
		c0.7,0.2,1.5,0.2,2.3,0.2c1.2,0,2.6-0.1,4-0.4c1.4-0.3,2.9-0.6,4.2-1c1.4-0.4,2.7-0.8,3.9-1.3s2.3-1,3.1-1.4h-0.1
		c0.7-0.5,1.2-0.5,1.5,0c0.3,0.5,0.5,1.1,0.5,2c0,0.8-0.1,1.5-0.4,2.4c-0.3,0.8-0.7,1.4-1.3,1.7c-0.8,0.4-1.8,0.8-2.8,1.1
		c-1,0.3-2.1,0.6-3.3,0.9s-2.4,0.4-3.7,0.6c-1.3,0.1-2.5,0.2-3.8,0.2c-1.7,0-3.4-0.1-5-0.4c-1.6-0.3-3-0.8-4.2-1.4
		c-1.2-0.7-2.2-1.5-2.9-2.6c-0.7-1.1-1.1-2.4-1.1-3.9c0-2.8,0.4-5.5,1.1-8.3c0.7-2.8,1.7-5.5,2.8-8.3c-1.8,0.7-3.4,1.6-5,2.5
		c-1.5,1-3,2.1-4.2,3.3c-0.3,0.3-0.5,0.7-0.8,1.1c-0.3,0.5-0.6,1-0.8,1.5c-0.3,0.6-0.5,1.2-0.6,1.9c-0.2,0.7-0.3,1.4-0.3,2.1
		c0,0.6,0.1,1.3,0.3,1.8c0.2,0.6,0.5,1.1,0.9,1.5H38.8z"/>
	<path class="st0" d="M84.4,111.3c0.4-0.2,1-0.2,1.7,0c0.7,0.2,1.4,0.6,2,1c0.6,0.5,1.1,1,1.5,1.6c0.4,0.6,0.5,1.3,0.3,1.9
		c-0.1,0.4-0.4,1-0.7,1.7c-0.3,0.8-0.7,1.6-1.2,2.6c-0.6,1.5-1.4,3.1-2.1,4.8c-0.8,1.7-1.5,3.4-2.1,4.9c-0.6,1.5-1.1,2.8-1.5,3.8
		c-0.4,1-0.5,1.6-0.3,1.6c0.6-0.1,1.5-0.7,2.6-1.7c1.2-1,2.4-2.3,3.8-3.9c1.4-1.5,2.8-3.3,4.2-5.1c1.4-1.9,2.8-3.7,3.9-5.4
		c1.2-1.7,2.2-3.3,2.9-4.8c0.8-1.4,1.2-2.5,1.3-3.2c0.1-0.2,0.3-0.1,0.7,0.2c0.3,0.3,0.7,0.7,1,1.2c0.3,0.5,0.6,1,0.8,1.5
		c0.2,0.5,0.2,0.9,0.1,1.2c-0.8,1.1-1.7,2.4-2.8,4c-1.1,1.6-2.3,3.2-3.7,5c-1.4,1.7-2.8,3.5-4.3,5.2c-1.5,1.7-3.1,3.3-4.6,4.6
		c-1.5,1.4-3.1,2.5-4.6,3.3c-1.5,0.8-3,1.2-4.4,1.2c-1,0-1.8-0.3-2.5-0.9c-0.7-0.6-1-1.5-1-2.6c0-0.4,0.1-0.8,0.2-1.4
		c0.1-0.6,0.3-1.1,0.5-1.8c0.3-0.9,0.7-2,1.3-3.3c0.5-1.3,1.1-2.6,1.7-4c1-2.3,1.9-4.7,2.9-7.1c0.9-2.4,1.7-4.5,2.2-6.4H84.4z"/>
	<path class="st0" d="M120.6,118.6c-1.5,2.8-3.6,5.2-6.2,7c-2.6,1.9-5.5,3.3-8.7,4.2v0.4c0,1.2,0.2,2.3,0.7,3.4
		c0.4,1.1,1.2,1.8,2.1,2.1c0.7,0.1,1.5,0.1,2.5-0.2c1-0.3,2-0.8,3.1-1.5c1.1-0.7,2.2-1.6,3.3-2.8c1.2-1.1,2.3-2.5,3.3-4.1
		c0.6-0.8,1.1-1.6,1.6-2.4c0.5-0.8,0.9-1.5,1.3-2.3c0.2-0.3,0.5-0.5,0.9-0.5c0.4-0.1,0.7-0.1,1,0c0.3,0.1,0.5,0.3,0.6,0.5
		c0.1,0.3,0.1,0.6-0.1,0.9l-1,1.7c-0.9,1.4-1.9,3-3.2,4.7c-1.3,1.7-2.8,3.5-4.6,5.2c-1,0.9-2,1.5-3,2c-1,0.5-2,0.8-2.9,1.1
		c-0.9,0.2-1.8,0.4-2.5,0.4c-0.8,0-1.3,0.1-1.8,0.1c-2.7,0-4.7-0.6-6.2-1.9c-1.5-1.3-2.3-3.1-2.4-5.3c-0.1-2.1,0.3-4.1,1.1-6.1
		s2.2-4.2,4-6.7c0.6-0.8,1.4-1.6,2.3-2.5c1-0.9,2.1-1.7,3.3-2.5c1.2-0.7,2.6-1.3,4-1.8c1.4-0.5,2.8-0.7,4.2-0.6
		c1.4,0,2.5,0.4,3.3,1.1c0.8,0.7,1.2,1.6,1.2,2.7C121.9,116.1,121.4,117.3,120.6,118.6z M117.3,114c-1.4,0.3-2.7,1-4,2
		c-1.3,1.1-2.4,2.3-3.4,3.7c-1,1.4-1.8,2.9-2.5,4.4c-0.7,1.5-1.2,2.8-1.5,4c2.6-0.9,4.9-2.2,7-4c2.1-1.8,3.8-4,5.2-6.6
		c0.3-0.6,0.4-1.3,0.4-1.9c0-0.5-0.1-1-0.3-1.2C118.1,114,117.8,113.9,117.3,114z"/>
	<path class="st0" d="M148.7,131.2c-0.9,1.2-1.8,2.3-2.9,3.4s-2.2,2-3.4,2.8c-1.2,0.8-2.4,1.2-3.6,1.2c-0.7,0-1.4-0.1-2.1-0.3
		c-0.6-0.2-1.2-0.5-1.7-1c-0.5-0.4-0.9-1-1.2-1.7c-0.3-0.7-0.4-1.5-0.4-2.4c0-0.9,0.2-1.8,0.4-2.7c0.2-0.9,0.5-1.9,0.9-2.9
		c0.4-1,0.8-2.2,1.3-3.4c0.5-1.2,1.1-2.6,1.7-4.1c0.3-0.7,0.5-1.4,0.7-2c0.2-0.6,0.3-1.2,0.3-1.7c0-0.4-0.2-0.5-0.7-0.4
		c-0.5,0.1-1.2,0.7-2.2,1.6c-1.3,1.1-2.4,2.2-3.5,3.4c-1,1.1-2.1,2.4-3.2,3.8c-0.9,2.1-1.7,4.3-2.4,6.5c-0.6,2.2-1.1,4.5-1.2,6.9
		c0,0.3-0.3,0.5-0.9,0.4c-0.5-0.1-1.1-0.2-1.7-0.5s-1.2-0.6-1.7-1c-0.5-0.4-0.8-0.8-0.9-1.1c0.1-2.7,0.7-5.4,1.5-8
		c0.9-2.6,1.8-5.3,2.8-8c0.5-1.3,1-2.6,1.5-3.9c0.5-1.3,0.9-2.8,1.4-4.4c0.4-0.2,1-0.2,1.8,0c0.8,0.2,1.5,0.5,2.2,0.9
		c0.7,0.4,1.2,1,1.7,1.6c0.4,0.6,0.5,1.2,0.3,1.8h0.1c0,0.1,0,0.1-0.1,0.2c1.3-1.3,2.8-2.3,4.3-3.2c1.5-0.9,3.1-1.4,4.8-1.5
		c0.4,0,0.9,0.2,1.4,0.5c0.5,0.3,1,0.7,1.4,1.1s0.7,0.9,1,1.4c0.2,0.5,0.3,1,0.2,1.3c-0.6,1.7-1.2,3.2-1.9,4.7s-1.2,2.7-1.6,3.8
		c-0.4,0.9-0.8,1.8-1.1,2.6s-0.6,1.6-0.9,2.3c-0.3,0.8-0.5,1.6-0.6,2.4s-0.3,1.7-0.4,2.8c0,0.2,0,0.4,0.1,0.5
		c0.1,0.2,0.4,0.2,0.8,0.1c0.9-0.5,2.1-1.3,3.5-2.6c1.4-1.2,2.8-2.9,4.3-5.1c0.7-1,1.3-2,1.9-3.1l0.9-1.5c0.1-0.2,0.3-0.3,0.6-0.3
		c0.3,0,0.6,0,0.9,0.1c0.3,0.1,0.5,0.3,0.7,0.4c0.2,0.2,0.2,0.4,0.1,0.6l-2.8,4.7C150.2,129,149.5,130,148.7,131.2z"/>
	<path class="st0" d="M152.4,111.5c-0.3,0.1-0.6,0.1-0.9,0.1c-0.2-0.1-0.4-0.2-0.6-0.4s-0.2-0.3-0.2-0.5c0-0.2,0.2-0.4,0.4-0.6
		c2.5-1.7,5.1-3,7.8-4.1c2-4.2,3.4-7.9,4.2-11c0.4-0.2,1-0.2,1.8-0.1c0.8,0.2,1.5,0.5,2.2,0.9c0.7,0.4,1.2,1,1.7,1.6
		c0.4,0.6,0.5,1.2,0.3,1.8c-0.1,0.4-0.4,0.9-0.7,1.6c-0.3,0.7-0.7,1.6-1.2,2.5c2.7-0.5,5.4-0.8,8.2-0.8c0.4,0,0.8,0,1.3,0
		c0.5,0,1,0,1.3,0.1c0.1,0.3,0.1,0.6,0,1c-0.1,0.4-0.3,0.7-0.5,1s-0.5,0.6-0.8,0.8c-0.3,0.2-0.6,0.3-1,0.2c-0.4,0-0.8-0.1-1.2-0.1
		c-0.4,0-0.8,0-1.2,0c-1.3,0-2.5,0.1-3.8,0.2c-1.2,0.1-2.5,0.4-3.8,0.6l-2.5,5l-0.3,0.6c-0.3,0.6-0.8,1.5-1.3,2.6
		c-0.6,1.1-1.2,2.3-1.8,3.7s-1.3,2.8-2,4.2c-0.7,1.5-1.3,2.9-1.8,4.3c-0.5,1.4-1,2.7-1.3,3.9c-0.3,1.2-0.5,2.2-0.5,2.9
		c0,0.8,0.1,1.3,0.3,1.5h0.4c1-0.4,1.9-0.9,2.8-1.7c0.9-0.8,1.8-1.7,2.6-2.6c0.8-1,1.6-2,2.3-3.2c0.7-1.1,1.4-2.2,2-3.2h-0.1
		c0.2-0.3,0.4-0.6,0.5-0.8c0.2-0.3,0.4-0.5,0.5-0.8c0.1-0.2,0.3-0.3,0.6-0.3c0.3,0,0.6,0,0.9,0.1c0.3,0.1,0.5,0.3,0.7,0.4
		c0.2,0.2,0.2,0.4,0.1,0.6l-1.3,2.2c-0.5,0.9-1.1,1.8-1.7,2.7c-0.6,0.9-1.2,1.9-1.9,2.8s-1.4,1.8-2.2,2.6c-0.8,0.8-1.5,1.6-2.4,2.3
		c-0.3,0.2-0.6,0.5-1,0.8s-0.9,0.5-1.4,0.8c-0.5,0.2-1.1,0.4-1.8,0.6c-0.6,0.2-1.3,0.2-2,0.2c-1.5-0.1-2.5-0.6-3.2-1.5
		c-0.7-0.9-1-2.1-1-3.5c0-0.3,0-0.6,0.1-1c0-0.4,0.1-0.8,0.2-1.1c0.2-1.6,0.6-3.2,1.1-4.9c0.5-1.6,1.1-3.2,1.8-4.8
		c0.7-1.6,1.4-3.2,2.2-4.8c0.8-1.6,1.6-3.2,2.4-4.8l1.6-3.1c-0.8,0.4-1.7,0.7-2.5,1.1s-1.7,0.8-2.5,1.3H152.4z"/>
	<path class="st0" d="M160.2,132.2c0-1.2,0.3-2.3,0.9-3.4c0.6-1.1,1.4-2.1,2.3-2.8c0.2-0.4,0.5-0.7,0.7-1.1c0.3-0.4,0.5-0.7,0.7-1.1
		c0.9-1.5,1.9-3,2.9-4.5s2.1-3,3.2-4.5c0.2-0.3,0.4-0.6,0.6-0.8c0.2-0.3,0.4-0.5,0.5-0.8c0.6-0.8,1.2-1.7,2-2.6
		c0.8-0.9,1.9-2,3.3-3.3c0.4,0.2,1,0.5,1.6,0.8c0.6,0.4,1.2,0.7,1.8,1.2c0.5,0.4,0.9,0.8,1.2,1.2c0.3,0.4,0.2,0.7-0.2,1h0.1
		c-0.5,0.5-0.9,0.9-1.2,1.2c-0.3,0.4-0.6,0.8-1,1.4l-0.6,1c-0.8,1.2-1.3,2.5-1.5,3.8c-0.3,1.4-0.4,2.8-0.4,4.2c0,0.7,0,1.4,0.1,2.2
		c0,0.7,0.1,1.4,0.2,2.2l0.2,2.9c0,1.3-0.2,2.5-0.6,3.6c-0.4,1.1-1.1,2-1.9,2.8s-1.8,1.3-3,1.7c-1.2,0.4-2.4,0.5-3.7,0.5
		c-2.8-0.2-4.8-1-6.1-2.2C160.9,135.3,160.2,133.9,160.2,132.2z M170.7,123.1c0-0.6,0-1.3,0.1-2s0.2-1.4,0.4-2.1
		c-0.5,0.7-1,1.5-1.5,2.3c-0.5,0.8-1,1.6-1.5,2.3l-0.9,1.3c0.6,0.1,1.2,0.3,1.7,0.5c0.1,0.1,0.3,0.4,0.4,0.8
		c0.2,0.4,0.4,0.9,0.5,1.4c0.2,0.5,0.3,1,0.3,1.4c0.1,0.5,0,0.8-0.2,0.9c-0.9-0.7-1.6-1.1-2.3-1.1c-0.5,0-0.9,0.1-1.4,0.3
		c-0.5,0.2-0.9,0.4-1.3,0.7c-0.4,0.3-0.7,0.7-0.9,1.1c-0.2,0.4-0.4,0.9-0.4,1.5c0,0.3,0,0.6,0.1,1c0.1,0.3,0.2,0.6,0.4,0.9
		c0.4,0.7,1,1.3,1.6,1.6c0.6,0.3,1.2,0.5,1.7,0.6c0.6,0.1,1.2,0,1.7-0.3c0.5-0.3,0.8-0.7,1.1-1.2c0.3-0.5,0.5-1.1,0.6-1.7
		c0.1-0.7,0.2-1.4,0.2-2.1c0-0.6,0-1.2-0.1-1.9c-0.1-0.6-0.1-1.3-0.2-1.9c-0.1-0.7-0.1-1.4-0.2-2.2S170.7,123.8,170.7,123.1z"/>
</g>
</svg>
