<svg width="322" height="250" viewBox="0 0 322 250" fill="none" xmlns="http://www.w3.org/2000/svg">
<g clip-path="url(#clip0_36_1171)">
<path d="M42.8871 245.809H2.01757C1.27886 245.809 0.680023 246.408 0.680023 247.146V247.793C0.680023 248.531 1.27886 249.13 2.01757 249.13H42.8871C43.6258 249.13 44.2246 248.531 44.2246 247.793V247.146C44.2246 246.408 43.6258 245.809 42.8871 245.809Z" fill="#ADBEC4"/>
<path d="M314.261 245.809H273.391C272.652 245.809 272.054 246.408 272.054 247.146V247.793C272.054 248.531 272.652 249.13 273.391 249.13H314.261C314.999 249.13 315.598 248.531 315.598 247.793V247.146C315.598 246.408 314.999 245.809 314.261 245.809Z" fill="#ADBEC4"/>
<path d="M99.8815 245.809H59.012C58.2733 245.809 57.6744 246.408 57.6744 247.146V247.793C57.6744 248.531 58.2733 249.13 59.012 249.13H99.8815C100.62 249.13 101.219 248.531 101.219 247.793V247.146C101.219 246.408 100.62 245.809 99.8815 245.809Z" fill="#ADBEC4"/>
<path d="M177.088 245.809H110.953C110.215 245.809 109.616 246.408 109.616 247.146V247.793C109.616 248.531 110.215 249.13 110.953 249.13H177.088C177.826 249.13 178.425 248.531 178.425 247.793V247.146C178.425 246.408 177.826 245.809 177.088 245.809Z" fill="#ADBEC4"/>
<path d="M251.47 245.809H187.565C186.826 245.809 186.228 246.408 186.228 247.146V247.793C186.228 248.531 186.826 249.13 187.565 249.13H251.47C252.209 249.13 252.808 248.531 252.808 247.793V247.146C252.808 246.408 252.209 245.809 251.47 245.809Z" fill="#ADBEC4"/>
<path d="M20.3717 195.205C20.3717 195.205 31.5179 224.928 32.1867 234.291C32.1867 234.291 35.0104 236.52 39.7661 234.588C39.7661 234.588 39.9148 206.128 35.2333 197.36C30.5519 188.591 20.3717 195.205 20.3717 195.205Z" fill="#FF8B66"/>
<path d="M17.9195 247.443H41.4009C42.0047 245.147 41.8216 242.713 40.8808 240.533C40.8808 240.533 41.9211 236.52 41.5496 235.183C41.178 233.845 36.348 232.21 35.0104 233.548C34.6703 233.943 34.4156 234.405 34.2621 234.904C34.1087 235.402 34.0599 235.927 34.1187 236.446C33.45 232.73 31.7409 232.433 30.1061 233.919C28.4713 235.406 30.4776 234.662 30.1804 237.115C30.1061 237.263 30.1061 237.412 30.0318 237.56C29.7026 238.26 29.1549 238.834 28.4713 239.195L27.8768 239.567L26.6136 240.013C25.8901 240.247 25.1421 240.396 24.3844 240.459C21.1891 240.756 19.8516 240.979 18.3654 242.613C16.8792 244.248 17.8452 245.586 17.8452 245.586L17.9195 247.443Z" fill="#CFD8DC"/>
<path d="M30.0318 237.56C29.8791 237.926 29.6512 238.255 29.363 238.527C29.9083 238.276 30.5193 238.206 31.1072 238.326C31.6951 238.446 32.2294 238.751 32.6326 239.195L33.227 238.452C32.9156 237.917 32.4074 237.524 31.8106 237.357C31.2138 237.191 30.5756 237.264 30.0318 237.56Z" fill="#ADBEC4"/>
<path d="M30.4776 240.904L31.295 240.384C31.188 239.92 30.9483 239.498 30.6053 239.168C30.2622 238.838 29.8306 238.615 29.363 238.526C29.1131 238.806 28.81 239.034 28.4713 239.195C28.9248 239.283 29.3479 239.486 29.6995 239.786C30.0511 240.085 30.3192 240.47 30.4776 240.904Z" fill="#ADBEC4"/>
<path d="M28.2484 241.796L29.0658 241.35C29.021 240.981 28.8901 240.627 28.6836 240.317C28.4771 240.007 28.2008 239.75 27.8768 239.567L26.6136 240.013C27.004 240.166 27.3543 240.406 27.6377 240.715C27.921 241.024 28.1299 241.394 28.2484 241.796Z" fill="#ADBEC4"/>
<path d="M68.3748 241.796C69.0892 241.265 69.6736 240.579 70.0839 239.79C70.3446 237.891 70.3446 235.966 70.0839 234.068C69.638 231.17 70.9013 228.792 75.0625 227.9C79.2238 227.009 81.4531 228.941 80.487 237.04C81.0815 240.384 81.2301 244.174 79.8183 247.443H67.4831C67.4831 247.443 65.5511 243.208 68.3748 241.796Z" fill="#CFD8DC"/>
<path d="M57.5258 198.326C57.7777 204.025 59.328 209.591 62.0586 214.599C66.6657 222.996 72.3874 234.514 72.3874 234.514C72.3874 234.514 76.1772 238.229 78.6293 232.136C78.6293 232.136 76.9203 210.661 72.9819 202.859C69.0436 195.056 57.5258 198.326 57.5258 198.326Z" fill="#FF8B66"/>
<path d="M77.7377 235.331C77.7377 235.331 78.8523 232.953 77.812 231.987C76.7716 231.021 75.657 232.805 73.8736 232.433C72.0902 232.062 71.7187 230.798 71.2728 232.433C70.827 234.068 71.4215 239.418 77.7377 235.331Z" fill="#CFD8DC"/>
<path d="M71.1985 235.183C71.1985 235.183 75.8799 236.892 78.2578 235.183L77.6633 237.263C77.6633 237.263 72.6104 237.783 71.8673 236.52L71.1985 235.183Z" fill="#ADBEC4"/>
<path d="M71.2728 237.709C71.2728 237.709 75.5084 237.115 77.589 238.155V239.195C77.589 239.195 72.0159 237.858 70.2325 239.195L71.2728 237.709Z" fill="#ADBEC4"/>
<path d="M77.8119 241.276C77.4715 240.641 76.9691 240.107 76.3558 239.728C75.7424 239.35 75.0399 239.14 74.3195 239.121C72.7795 239.026 71.2549 239.473 70.0096 240.384C71.2889 239.91 72.6617 239.744 74.0172 239.899C75.3726 240.054 76.6726 240.526 77.8119 241.276Z" fill="#ADBEC4"/>
<path d="M76.623 196.171C76.2327 197.008 75.7597 197.805 75.2112 198.549L74.8396 198.995C72.2388 202.19 66.5914 206.425 56.2626 202.264L55.6681 200.704L55.4452 200.183C54.6294 198.192 54.0072 196.127 53.5875 194.016C50.9124 179.006 49.8721 168.157 48.4602 161.989C44.5219 171.575 35.6049 190.152 35.2333 190.895C34.8618 191.638 36.7195 198.326 36.7195 198.326C29.2887 200.704 18.5883 197.657 18.5883 197.657C18.5883 197.657 15.3931 188.22 14.8729 181.458C14.5014 176.331 27.5053 147.425 33.5986 134.198L34.0444 133.157L36.7195 127.51L47.1227 131.077L72.3875 142.446C72.3875 142.446 72.8333 142.966 73.2048 148.168C73.2222 148.293 73.2471 148.417 73.2792 148.539C73.5021 151.66 73.725 156.342 73.8736 163.252V163.698C73.8736 165.184 73.8736 166.819 73.9479 168.602V183.315C73.9479 184.95 73.8736 186.659 73.8736 188.443C73.8736 190.226 75.1369 193.124 75.9543 194.833L76.1772 195.279C76.2867 195.594 76.4365 195.894 76.623 196.171Z" fill="#0C476B"/>
<path d="M75.2112 198.549L74.8396 198.995C73.6507 197.062 71.8673 193.719 71.4957 191.415C71.1242 189.112 70.6041 175.216 71.4957 161.617C72.3874 148.019 69.4151 135.535 69.4151 135.387L69.9353 135.238C69.9353 135.387 72.9076 148.391 72.0159 161.692C71.1242 174.993 71.4214 188.071 72.0159 191.341C72.3875 193.421 74.0965 196.542 75.2112 198.549Z" fill="#0E3944"/>
<path d="M71.2728 146.756C68.9846 145.988 66.8898 144.733 65.1325 143.078C63.3752 141.424 61.9969 139.408 61.0926 137.17L61.6871 136.947C61.6871 137.021 63.6934 143.412 71.4957 146.236L71.2728 146.756Z" fill="#0E3944"/>
<path d="M41.4752 131.969C41.0941 132.103 40.6887 132.153 40.2863 132.117C38.7258 132.191 35.9021 132.414 33.5986 134.198L34.0444 133.157C35.9649 132.131 38.1089 131.595 40.2863 131.597L41.178 131.448L41.4752 131.969Z" fill="#0E3944"/>
<path d="M48.2373 162.138C42.3669 150.397 49.9464 134.644 50.0207 134.495L50.5408 134.792C50.4665 134.941 42.9614 150.397 48.6831 161.84L48.2373 162.138Z" fill="#0E3944"/>
<path d="M47.0483 150.694C46.7447 150.697 46.4429 150.647 46.1566 150.546L46.3053 150.025C46.6531 150.128 47.0189 150.155 47.378 150.103C47.737 150.052 48.0807 149.924 48.3859 149.728C49.2776 149.208 49.7978 148.093 50.0207 146.459C50.5408 141.48 54.3306 135.387 54.5535 135.164L54.9993 135.461C54.925 135.461 51.1353 141.703 50.5408 146.533C50.3179 148.316 49.7234 149.58 48.6831 150.248C48.1987 150.565 47.6266 150.721 47.0483 150.694Z" fill="#0E3944"/>
<path d="M18.8112 21.6951C18.8112 21.6951 19.7029 19.5402 23.5669 19.5402C27.431 19.5402 27.7282 21.1749 27.7282 21.1749C29.5116 26.4508 31.4436 46.4397 32.1124 47.1828L54.7764 64.5709C42.7385 64.7939 42.2926 84.7828 42.2926 84.7828C41.8468 79.8784 25.1274 67.6176 20.8175 59.5923C16.5077 51.567 14.9472 33.8073 18.8112 21.6951Z" fill="#F2A668"/>
<path d="M90.8902 93.1053C89.1068 113.243 81.8246 132.786 79.2981 140.885C78.778 142.595 78.4064 143.635 78.4064 143.635C78.4064 143.635 38.8745 138.508 34.193 127.807L34.416 126.99C35.5306 122.085 41.4009 102.394 42.0697 86.3433C42.8128 68.435 48.8318 62.0445 52.4729 62.8619C52.4729 62.8619 60.6468 69.3267 65.8483 69.3267C71.0499 69.3267 83.608 63.6049 83.608 63.6049C83.608 63.6049 93.1195 68.5836 90.8902 93.1053Z" fill="#FFB878"/>
<path d="M65.9227 61.9702C67.2359 61.9702 68.3005 60.9056 68.3005 59.5923C68.3005 58.279 67.2359 57.2144 65.9227 57.2144C64.6094 57.2144 63.5448 58.279 63.5448 59.5923C63.5448 60.9056 64.6094 61.9702 65.9227 61.9702Z" fill="#F24052"/>
<path d="M114.817 23.107C114.817 23.107 113.926 20.952 109.987 20.952C106.049 20.952 105.9 22.6611 105.9 22.6611C104.117 27.8627 102.185 47.8516 101.516 48.5947C100.848 49.3378 78.8523 65.9828 78.8523 65.9828C78.3321 79.9527 91.3361 86.1946 91.3361 86.1946C91.7076 81.2903 108.501 69.0294 112.737 61.0042C116.972 52.9789 118.681 35.2935 114.817 23.107Z" fill="#F2A668"/>
<path d="M60.944 69.0294C60.944 69.0294 58.789 69.9211 58.3432 70.8128C57.8973 71.7045 59.5321 75.6429 62.7274 75.9401C65.9226 76.2373 72.0159 72.5962 71.7187 71.333C71.4214 70.0698 66.9629 68.6579 60.944 69.0294Z" fill="#F2A668"/>
<path d="M60.5724 64.5709C60.5724 64.5709 61.8357 69.4753 59.978 71.4073C59.978 71.4073 62.9503 76.2373 69.638 71.333C69.638 71.333 68.3748 68.1377 69.638 66.0571L60.5724 64.5709Z" fill="#EF6E4B"/>
<path d="M79.5954 51.1955C79.5876 50.6282 79.3834 50.0812 79.0176 49.6476C78.6517 49.214 78.1469 48.9207 77.589 48.8176C78.052 48.3679 78.319 47.7538 78.3321 47.1085C78.3321 46.4779 78.0816 45.8731 77.6356 45.4271C77.1897 44.9812 76.5849 44.7307 75.9542 44.7307C76.2127 44.3336 76.3424 43.8666 76.3258 43.3931C76.3357 43.0746 76.2816 42.7574 76.1666 42.4603C76.0515 42.1632 75.878 41.8922 75.6562 41.6635C75.4344 41.4347 75.1688 41.2529 74.8754 41.1288C74.5819 41.0047 74.2665 40.9408 73.9479 40.9409C73.6732 40.937 73.4005 40.9875 73.1454 41.0895C72.8903 41.1916 72.658 41.3431 72.4618 41.5354C72.4618 40.885 72.2034 40.2613 71.7435 39.8015C71.2837 39.3416 70.6599 39.0832 70.0096 39.0832C69.6096 39.0913 69.2177 39.197 68.868 39.3913C68.5183 39.5856 68.2214 39.8625 68.0033 40.1979C67.8445 39.7149 67.5351 39.2956 67.1205 39.0014C66.706 38.7071 66.208 38.5535 65.6997 38.5631C65.2787 38.5593 64.8642 38.6674 64.4987 38.8763C64.1331 39.0852 63.8296 39.3874 63.6191 39.752C63.1724 39.3397 62.5919 39.1022 61.9843 39.0832C61.3786 39.082 60.7952 39.3121 60.3533 39.7263C59.9114 40.1406 59.6443 40.7079 59.6064 41.3125C59.2025 41.0697 58.7402 40.9413 58.2689 40.9409C57.9503 40.9408 57.6349 41.0047 57.3414 41.1288C57.048 41.2529 56.7825 41.4347 56.5607 41.6635C56.3389 41.8922 56.1653 42.1632 56.0503 42.4603C55.9352 42.7574 55.8811 43.0746 55.891 43.3931C55.8791 43.5698 55.9044 43.747 55.9653 43.9133H55.891C55.2407 43.9133 54.617 44.1716 54.1571 44.6315C53.6972 45.0914 53.4389 45.7151 53.4389 46.3654C53.4703 46.9704 53.706 47.5467 54.1076 48.0002C53.5635 48.1183 53.0757 48.4181 52.7246 48.8503C52.3734 49.2824 52.1798 49.8213 52.1756 50.3781C52.1817 50.8726 52.3328 51.3545 52.6102 51.764C52.8876 52.1735 53.2791 52.4926 53.7361 52.6816C53.4245 52.8954 53.1724 53.1849 53.0035 53.5228C52.8345 53.8608 52.7542 54.2361 52.7701 54.6137C52.7655 55.196 52.9748 55.7598 53.3583 56.1981C53.7419 56.6364 54.2729 56.9187 54.8507 56.9915C55.186 58.2504 55.9816 59.3376 57.08 60.0381C58.1203 61.0041 67.0373 62.0445 71.3471 61.6729C71.6851 62.0025 72.1111 62.2276 72.5738 62.321C73.0366 62.4145 73.5164 62.3724 73.9558 62.1997C74.3952 62.0271 74.7755 61.7313 75.0509 61.3479C75.3263 60.9645 75.4852 60.5097 75.5084 60.0381C76.0997 59.9825 76.6487 59.7076 77.0475 59.2675C77.4463 58.8275 77.666 58.2541 77.6633 57.6603C77.6633 57.4374 77.589 57.2144 77.589 57.0658C78.0069 56.8604 78.36 56.5436 78.6091 56.1502C78.8583 55.7568 78.9938 55.3022 79.0009 54.8366C79.0254 54.2701 78.8403 53.7145 78.4807 53.2761C78.8266 53.0511 79.11 52.7424 79.3048 52.3787C79.4997 52.015 79.5996 51.608 79.5954 51.1955Z" fill="#F24052"/>
<path d="M73.725 55.7283C73.725 55.7283 76.2515 53.2018 76.623 56.1741C76.9946 59.1464 73.8736 60.9298 73.2792 59.8895C72.6847 58.8492 73.725 55.7283 73.725 55.7283Z" fill="#FF8B66"/>
<path d="M56.1139 55.8769C56.1139 55.8769 53.5875 53.4247 53.2159 56.3227C52.8444 59.2207 55.9653 61.1528 56.5598 60.0381C57.1543 58.9235 56.1139 55.8769 56.1139 55.8769Z" fill="#FF8B66"/>
<path d="M65.1795 68.0634C70.7527 68.0634 73.9479 64.4223 73.9479 53.4247C73.9479 47.7773 71.0499 44.3591 64.808 44.3591C58.5661 44.3591 55.891 47.7773 55.891 53.4247C55.891 65.2397 59.3835 68.0634 65.1795 68.0634Z" fill="#FF8B66"/>
<path d="M57.7487 57.3631C57.6001 57.9575 58.1203 58.4777 58.8634 58.6263C59.6064 58.7749 60.2009 58.4034 60.2752 57.8089C60.2853 57.6527 60.2644 57.496 60.2138 57.3479C60.1632 57.1998 60.0838 57.0632 59.9803 56.9458C59.8767 56.8284 59.751 56.7327 59.6103 56.664C59.4697 56.5953 59.3168 56.5551 59.1606 56.5457C58.8666 56.493 58.5635 56.5462 58.305 56.6959C58.0466 56.8455 57.8495 57.0819 57.7487 57.3631Z" fill="#DB614D"/>
<path d="M69.2665 57.6603C69.2839 57.8147 69.3333 57.9637 69.4117 58.0979C69.49 58.232 69.5956 58.3483 69.7215 58.4392C69.8475 58.5302 69.991 58.5938 70.143 58.626C70.295 58.6583 70.452 58.6583 70.604 58.6263C71.3471 58.552 71.8673 58.1061 71.8673 57.5117C71.796 57.2029 71.6113 56.9322 71.3498 56.7533C71.0882 56.5744 70.769 56.5003 70.4554 56.5457C69.7867 56.62 69.1922 57.1401 69.2665 57.6603Z" fill="#DB614D"/>
<path d="M60.2009 51.4927H60.4238C61.0897 51.0822 61.8806 50.924 62.6531 51.0469C62.8017 51.1212 62.9503 50.9725 62.9503 50.8239C62.9503 50.6753 62.9503 50.5267 62.7274 50.5267C61.8021 50.3695 60.8512 50.5543 60.0523 51.0469C59.978 51.1212 59.9037 51.3441 60.0523 51.4184C60.0668 51.4442 60.0888 51.465 60.1152 51.4783C60.1417 51.4915 60.1716 51.4965 60.2009 51.4927Z" fill="#F24052"/>
<path d="M70.9013 51.4927H71.1242C71.1985 51.3441 71.1985 51.1955 71.0499 51.1212C70.2738 50.5702 69.3188 50.3315 68.3748 50.4524C68.3035 50.4832 68.2436 50.5356 68.2036 50.6023C68.1636 50.6689 68.1455 50.7465 68.1519 50.8239C68.1519 50.9725 68.3005 51.0469 68.4491 51.0469C69.2316 50.9239 70.0311 51.1104 70.6784 51.567L70.9013 51.4927Z" fill="#F24052"/>
<path d="M60.7954 54.6136C60.7954 55.3567 61.0926 55.8769 61.4641 55.8769C61.8357 55.8769 62.2072 55.3567 62.2072 54.6136C62.2072 53.8706 61.8357 53.4247 61.4641 53.4247C61.0926 53.4247 60.7954 53.9449 60.7954 54.6136Z" fill="#1A4850"/>
<path d="M68.2262 54.6136C68.2262 55.3567 68.5977 55.8769 68.9693 55.8769C69.3408 55.8769 69.638 55.3567 69.638 54.6136C69.638 53.8706 69.3408 53.4247 68.9693 53.4247C68.5977 53.4247 68.2262 53.9449 68.2262 54.6136Z" fill="#1A4850"/>
<path d="M71.4214 47.0342L59.012 46.1425C59.012 46.1425 55.891 49.4121 56.114 57.4374C56.114 57.4374 51.061 42.9473 65.6997 42.9473C80.3384 42.9473 73.725 57.0658 73.725 57.0658C73.725 57.0658 74.1709 49.7093 71.4214 47.0342Z" fill="#F24052"/>
<path d="M64.808 58.4034L65.2539 57.9575L64.1392 56.8429C65.1795 55.3567 65.1795 51.8643 65.1795 51.6413H64.5851C64.5851 51.7156 64.5851 55.5053 63.5448 56.6943L63.3218 56.9172L64.808 58.4034Z" fill="#DB614D"/>
<path d="M68.5234 60.1868C68.5234 60.1868 63.0246 60.484 60.2752 59.7409C60.1976 60.2736 60.2391 60.8168 60.3966 61.3315C60.5541 61.8462 60.8238 62.3196 61.1862 62.7175C61.5487 63.1155 61.9948 63.4281 62.4926 63.633C62.9904 63.8378 63.5274 63.9298 64.0649 63.9022C68.5234 64.1251 68.5234 60.1868 68.5234 60.1868Z" fill="#1A4850"/>
<path d="M23.9385 19.02C23.9385 19.02 19.7772 19.2429 19.8515 20.5805C19.9258 21.918 19.8515 23.4785 23.344 23.3299C26.8365 23.1813 26.8365 21.7694 26.8365 20.4319C26.8365 19.0943 25.1274 18.9457 23.9385 19.02Z" fill="#FFB878"/>
<path d="M111.102 19.7631C111.102 19.7631 106.941 19.7631 106.866 21.1006C106.792 22.4382 106.718 23.9987 110.21 23.9987C113.703 23.9987 113.777 22.6611 113.926 21.3979C114.074 20.1346 112.217 19.7631 111.102 19.7631Z" fill="#FFB878"/>
<path d="M17.3994 10.6975C18.04 11.7627 18.587 12.8815 19.0342 14.0414C19.4057 16.2706 19.6286 17.4595 20.446 18.4999C21.2634 19.5402 20.8175 21.3236 20.8175 21.3236C20.8175 21.3236 23.7899 22.8097 26.3164 20.952C26.2013 20.1885 26.2013 19.412 26.3164 18.6485C26.8365 17.6825 28.5456 17.088 29.0658 15.0817C29.6232 13.5421 30.399 12.0907 31.3693 10.7718C31.3693 10.7718 30.8492 9.73149 29.9575 10.326C29.0658 10.9204 28.5456 12.6295 28.0254 12.7781H27.7282C27.549 12.8189 27.3631 12.82 27.1834 12.7815C27.0038 12.743 26.8347 12.6658 26.6879 12.5552C25.8705 11.5892 25.6476 8.83979 25.7219 7.57655C25.7962 6.31331 25.6476 3.4896 24.6073 3.86114C23.567 4.23268 24.533 5.273 23.7156 9.06272H23.344C23.2697 9.28564 22.5266 6.68485 22.378 4.30699C22.2294 1.92913 21.1148 3.19236 20.8919 3.78683C20.6689 4.3813 21.0405 5.94177 21.1148 7.1307C21.1165 7.85151 21.1662 8.57141 21.2634 9.28564L20.8175 9.58287C19.1085 6.68485 19.7029 5.49592 18.7369 5.42161C17.7709 5.34731 18.0681 7.87379 18.5883 8.76548C18.8658 9.44029 19.0894 10.136 19.2571 10.8461C17.548 8.83979 17.6966 7.87379 16.9535 7.94809C16.2104 8.0224 16.8049 10.0287 17.3994 10.6975Z" fill="#FF8B66"/>
<path d="M24.8302 15.3046C25.3503 13.6698 27.431 12.9267 27.7282 12.8524C27.549 12.8932 27.3631 12.8943 27.1834 12.8558C27.0038 12.8173 26.8347 12.7401 26.6879 12.6295C26.1399 12.829 25.6671 13.1932 25.3345 13.6722C25.0019 14.1512 24.8257 14.7215 24.8302 15.3046Z" fill="#EF6E4B"/>
<path d="M116.304 11.292C115.669 12.3234 115.146 13.4195 114.743 14.5615C114.297 16.7908 114.074 18.054 113.257 19.02C112.44 19.986 112.96 21.8437 112.96 21.8437C112.96 21.8437 109.913 23.4042 107.387 21.4722C107.387 21.4722 107.684 19.6888 107.387 19.1686C107.089 18.6485 105.232 17.6825 104.637 15.6018C104.092 14.0711 103.342 12.6213 102.408 11.292C102.447 11.1586 102.52 11.0375 102.619 10.94C102.717 10.8424 102.84 10.7717 102.974 10.7346C103.107 10.6974 103.249 10.6949 103.384 10.7274C103.519 10.76 103.643 10.8264 103.746 10.9204C104.637 11.5892 105.232 13.1497 105.678 13.3726H106.049C106.398 13.4037 106.744 13.297 107.015 13.0754H107.089C107.907 12.1093 108.055 9.28564 108.055 8.0967C108.055 6.90777 108.055 3.93544 109.096 4.30699C110.136 4.67853 109.17 5.71884 109.987 9.50856H110.433C110.508 9.80579 111.251 7.20501 111.399 4.75283C111.548 2.30066 112.588 3.71252 112.885 4.23268C113.183 4.75284 112.737 6.38762 112.663 7.65086C112.588 8.9141 112.514 9.28563 112.514 9.73148L112.96 10.0287C114.595 7.1307 114.074 5.94177 115.04 5.86746C116.006 5.79315 115.635 8.24532 115.115 9.21133C114.821 9.848 114.621 10.5237 114.52 11.2176C116.229 9.28563 116.006 8.24532 116.824 8.39394C117.641 8.54255 116.898 10.6232 116.304 11.292Z" fill="#FF8B66"/>
<path d="M108.947 15.8248C108.353 14.2643 106.272 13.5212 106.049 13.4469C106.398 13.478 106.744 13.3713 107.015 13.1497C107.565 13.3548 108.043 13.7184 108.386 14.1945C108.73 14.6706 108.925 15.2379 108.947 15.8248Z" fill="#EF6E4B"/>
<path d="M79.2981 140.885C78.778 142.595 78.4064 143.635 78.4064 143.635C78.4064 143.635 38.8745 138.508 34.193 127.807L34.416 126.99C36.8681 131.151 67.1859 141.257 79.2981 140.885Z" fill="#F2A668"/>
<path d="M223.828 247.443H243.073C244.411 239.79 242.256 232.136 242.256 232.136L233.488 230.576C232.67 235.406 231.704 237.338 230.367 238.304C229.401 239.047 228.212 239.27 226.8 239.79C226.128 239.991 225.511 240.344 224.996 240.82C224.48 241.297 224.081 241.885 223.828 242.539C222.936 244.768 223.828 247.443 223.828 247.443Z" fill="#0E3944"/>
<path d="M223.828 242.539C228.583 243.134 238.986 244.1 238.318 241.425C237.649 238.749 233.413 238.452 230.367 238.304C229.401 239.047 228.212 239.27 226.8 239.79C226.128 239.991 225.511 240.344 224.996 240.82C224.48 241.297 224.081 241.885 223.828 242.539Z" fill="#205260"/>
<path d="M288.253 247.443H307.499C307.897 246.248 308.024 244.979 307.87 243.728C307.776 242.822 307.415 241.964 306.833 241.263C306.251 240.562 305.474 240.049 304.601 239.79C302.892 239.195 301.628 238.972 300.588 238.006C299.548 237.04 298.582 234.96 297.913 230.576L289.07 232.136C289.07 232.136 286.915 239.79 288.253 247.443Z" fill="#0E3944"/>
<path d="M307.87 243.728C307.776 242.822 307.415 241.964 306.833 241.263C306.251 240.562 305.474 240.049 304.601 239.79C302.892 239.195 301.628 238.972 300.588 238.006C298.136 238.749 294.718 240.087 293.677 242.242C292.637 244.397 303.486 244.62 307.87 243.728Z" fill="#205260"/>
<path d="M299.25 231.913C299.25 231.913 297.764 236.669 288.179 233.399C288.179 233.399 281.119 179.897 280.005 178.708C278.89 177.519 267.595 142.669 267.595 142.669H264.028C264.028 142.669 252.734 177.594 251.693 178.708C250.653 179.823 243.445 233.399 243.445 233.399C233.859 236.669 232.373 231.913 232.373 231.913L236.98 174.25L246.64 114.803L265.812 116.958L285.058 114.803L287.584 130.334V130.928L294.569 174.25L299.25 231.913Z" fill="#8B383E"/>
<path d="M287.658 130.928C285.71 130.42 283.91 129.454 282.411 128.11C280.912 126.765 279.755 125.082 279.039 123.2L279.559 123.052C280.234 124.808 281.312 126.382 282.706 127.647C284.099 128.911 285.77 129.832 287.584 130.334L287.658 130.928Z" fill="#662C33"/>
<path d="M267.149 137.393C266.895 137.643 266.593 137.837 266.26 137.965C265.928 138.093 265.573 138.151 265.217 138.136C265.217 139.622 265.217 141.108 265.143 142.669H264.548C264.745 138.43 264.621 134.182 264.177 129.962H264.697C264.697 130.036 265.143 133.38 265.217 137.69C265.509 137.69 265.798 137.631 266.066 137.516C266.334 137.401 266.576 137.233 266.778 137.021C268.561 135.089 267.521 129.516 267.521 129.442H268.041C268.115 129.516 269.156 135.238 267.149 137.393Z" fill="#662C33"/>
<path d="M318.942 10.2516C317.833 10.7346 316.764 11.3061 315.747 11.9607C314.038 13.4469 313.146 14.2643 311.883 14.6358C310.62 15.0074 310.545 17.2366 310.545 17.2366C310.545 17.2366 305.864 19.2429 304.972 16.1963C304.972 16.1963 306.978 11.8121 307.127 11.2176C307.276 10.6232 306.31 8.69116 307.053 6.68484C307.538 5.14596 307.789 3.5427 307.796 1.92912C307.796 1.92912 308.836 1.33465 309.208 2.37497C309.579 3.41528 308.985 5.12437 309.282 5.49591L309.431 5.79315H309.505C309.616 5.918 309.754 6.01622 309.908 6.08053C310.063 6.14485 310.23 6.17361 310.397 6.16469H310.471C311.734 5.86745 313.518 3.78683 314.261 2.74651C315.004 1.7062 316.787 -0.523056 317.382 0.442951C317.976 1.40896 316.639 1.63189 315.004 5.12437L315.227 5.42161C315.152 5.64453 317.307 4.08405 318.868 2.22635C320.428 0.368644 320.503 2.07773 320.354 2.6722C320.205 3.26666 318.942 4.38129 318.199 5.27299L316.787 6.83346L316.936 7.35362C320.057 6.01607 320.354 4.75283 321.097 5.27299C321.84 5.79314 320.205 7.57654 319.239 8.02239C318.58 8.34284 317.977 8.76961 317.456 9.28563C320.057 8.69116 320.503 7.79947 321.023 8.39393C321.543 8.9884 319.834 10.103 318.942 10.2516Z" fill="#FF8B66"/>
<path d="M310.322 9.43426C310.842 7.79947 309.654 6.01608 309.505 5.79315C309.616 5.918 309.754 6.01622 309.908 6.08054C310.063 6.14485 310.23 6.17362 310.397 6.16469C310.725 6.65001 310.894 7.22549 310.881 7.81133C310.868 8.39717 310.672 8.96435 310.322 9.43426Z" fill="#EF6E4B"/>
<path d="M174.561 37.7457C175.784 37.7469 177.004 37.8714 178.202 38.1172C180.283 38.9346 181.472 39.3805 182.735 39.2318C183.998 39.0832 184.89 41.1639 184.89 41.1639C184.89 41.1639 190.017 41.3125 189.72 38.1172C189.72 38.1172 186.228 34.7734 185.93 34.3275C185.633 33.8817 185.782 31.6524 184.296 30.0919C183.279 28.8321 182.453 27.4301 181.843 25.9307C181.843 25.9307 180.655 25.7821 180.729 26.8224C180.803 27.8627 181.918 29.2745 181.843 29.7947C181.769 30.3149 181.769 30.0176 181.695 30.0919C181.649 30.2593 181.565 30.4136 181.448 30.5427C181.332 30.6717 181.188 30.7718 181.026 30.835H180.952C179.689 31.0579 177.236 29.7204 176.196 29.0516C175.156 28.3828 172.629 26.971 172.406 28.0856C172.183 29.2002 173.521 28.8287 176.419 31.5038L176.196 31.8753C176.419 32.0983 173.818 31.3552 171.663 30.2406C169.508 29.1259 170.103 30.7607 170.474 31.2066C170.846 31.6524 172.406 32.2469 173.447 32.8413L175.379 33.8073V34.3275C172.035 34.2532 171.366 33.1386 170.772 33.956C170.177 34.7734 172.481 35.665 173.595 35.7394C174.303 35.8497 174.999 36.0238 175.676 36.2595C173.075 36.7054 172.258 36.0366 171.96 36.7797C171.663 37.5228 173.67 37.8943 174.561 37.7457Z" fill="#FF8B66"/>
<path d="M182.289 33.8073C181.175 32.5441 181.695 30.3892 181.695 30.0919C181.649 30.2593 181.565 30.4137 181.448 30.5427C181.332 30.6717 181.188 30.7718 181.026 30.835C180.907 31.4002 180.965 31.9881 181.191 32.5196C181.417 33.0511 181.8 33.5005 182.289 33.8073Z" fill="#EF6E4B"/>
<path d="M311.809 18.2026C311.809 18.2026 311.363 20.0603 310.471 22.884C310.174 24.073 309.802 25.4105 309.356 26.8224L307.127 33.8073C306.681 35.1449 306.235 36.4824 305.715 37.7457C304.754 40.5768 303.587 43.3336 302.223 45.9939L301.777 46.8113C301.23 47.6811 300.609 48.5016 299.919 49.2635C298.656 50.6753 296.947 52.3844 295.015 54.1678C293.083 55.9512 293.009 56.0255 291.894 56.9172C290.779 57.8089 288.327 59.9638 286.544 61.45L283.2 64.1251C277.627 68.5836 273.02 72.0018 273.02 72.0018L264.697 54.9852C267.075 53.4247 271.459 50.7496 276.066 48.0002L279.262 45.9939L284.092 43.1702L287.435 41.1639L290.854 39.1575L292.34 38.2658L293.38 36.3338C294.123 34.922 295.163 32.767 296.427 30.3892L298.136 27.1196L301.034 21.6951C301.628 20.5805 302.297 19.4659 302.817 18.4255C304.452 15.5275 305.79 13.224 306.458 12.258C307.748 12.7689 308.903 13.5714 309.831 14.6027C310.759 15.634 311.436 16.8661 311.809 18.2026Z" fill="#CFD8DC"/>
<path d="M286.544 61.45L283.2 64.1251C282.409 58.1796 279.934 52.5845 276.066 48.0002L279.261 45.9939C282.934 50.4619 285.436 55.7735 286.544 61.45Z" fill="#8BBDDB"/>
<path d="M295.015 54.1678C293.975 55.0595 293.009 56.0255 291.894 56.9172C289.962 49.5607 286.395 45.2508 284.092 43.1702L287.435 41.1639C290.941 44.8484 293.537 49.3016 295.015 54.1678Z" fill="#8BBDDB"/>
<path d="M302.223 45.9939L301.777 46.8113C301.23 47.6811 300.609 48.5016 299.919 49.2634C297.545 45.3656 294.472 41.9395 290.854 39.1575L292.34 38.2658L293.38 36.3338C296.84 39.0449 299.827 42.3089 302.223 45.9939Z" fill="#8BBDDB"/>
<path d="M307.127 33.8073C306.681 35.1449 306.235 36.4824 305.715 37.7457C302.96 34.8918 299.836 32.4179 296.427 30.3892L298.136 27.1196C301.36 29.0257 304.374 31.2674 307.127 33.8073Z" fill="#8BBDDB"/>
<path d="M310.471 22.884C310.174 24.073 309.802 25.4105 309.356 26.8224C306.884 24.6657 304.072 22.9332 301.034 21.6951C301.628 20.5805 302.297 19.4659 302.817 18.4255C305.558 19.5593 308.133 21.0591 310.471 22.884Z" fill="#8BBDDB"/>
<path d="M241.662 59.4437L240.175 78.2437L228.435 74.8998L224.571 73.7109L217.511 71.333L213.87 69.9954C211.438 69.1111 209.057 68.0941 206.737 66.9488C205.822 66.5123 204.951 65.9898 204.136 65.3883L203.467 64.7939C201.515 63.0822 199.701 61.2187 198.043 59.2208C197.225 58.2548 196.334 57.2887 195.516 56.2484C194.699 55.2081 192.172 52.1615 190.612 50.2295L188.308 47.1828C185.633 43.7647 183.85 41.2382 183.85 41.2382C183.998 36.7797 187.268 35.5907 187.268 35.5907C189.719 37.2678 192.076 39.0787 194.327 41.0152L197.225 43.3931L202.13 47.4801L205.028 49.9322L208.52 52.9046L209.858 54.0192L212.013 54.3164L216.768 55.1338L220.484 55.7283L225.611 56.5457L229.252 57.1401C234.305 57.9575 238.986 58.8492 241.662 59.4437Z" fill="#CFD8DC"/>
<path d="M228.435 74.8998L224.571 73.7109C223.982 67.9706 224.333 62.1727 225.611 56.5457L229.252 57.1401C227.946 62.967 227.669 68.9775 228.435 74.8998Z" fill="#8BBDDB"/>
<path d="M220.484 55.7283C218.75 60.7604 217.749 66.0158 217.511 71.333L213.87 69.9954C214.146 64.9316 215.122 59.9303 216.768 55.1338L220.484 55.7283Z" fill="#8BBDDB"/>
<path d="M212.013 54.3164C209.825 58.3347 208.057 62.5679 206.737 66.9488C205.822 66.5123 204.951 65.9898 204.136 65.3883L203.467 64.7939C204.821 60.6984 206.511 56.7218 208.52 52.9046L209.858 54.0192L212.013 54.3164Z" fill="#8BBDDB"/>
<path d="M205.028 49.9322C202.441 52.8252 200.104 55.9325 198.043 59.2208C197.225 58.2548 196.334 57.2887 195.516 56.2484C197.539 53.1927 199.747 50.2644 202.13 47.4801L205.028 49.9322Z" fill="#8BBDDB"/>
<path d="M197.225 43.3931C194.857 45.5079 192.647 47.7928 190.612 50.2295L188.308 47.1828C190.164 44.9851 192.175 42.9239 194.327 41.0152L197.225 43.3931Z" fill="#8BBDDB"/>
<path d="M291.374 119.336C291.374 119.336 280.971 130.185 266.852 132.86C259.08 134.315 251.202 135.135 243.296 135.312C243.296 135.312 242.702 132.414 241.736 128.03C241.439 126.841 241.216 125.578 240.919 124.24C240.621 122.903 239.804 119.187 239.209 116.364C238.912 115.101 238.689 113.912 238.392 112.648C238.095 111.385 237.426 107.967 236.906 105.589C236.683 104.326 236.386 103.137 236.163 101.874C235.568 98.827 234.974 95.8547 234.379 93.031L233.711 89.2413C233.042 85.8974 232.522 82.7765 232.076 80.3243C231.63 77.8721 231.704 77.5006 231.556 76.4603C231.407 75.4199 231.481 75.7915 231.481 75.4943C231.333 72.8935 231.184 70.5156 231.184 68.3607V64.4966C231.258 60.4097 231.481 57.8832 231.481 57.8832C234.454 55.8769 254.666 62.416 254.666 62.416C254.666 62.416 269.601 49.5607 271.979 50.4524C273.512 51.2237 274.799 52.4075 275.695 53.8706C276.429 54.9448 277.099 56.0613 277.701 57.2144C278.871 59.5903 279.865 62.0491 280.673 64.5709C281.119 65.8094 281.565 67.147 282.011 68.5836C282.68 70.8871 283.274 73.265 283.943 75.7172L284.835 79.5069L286.395 86.7891C286.618 88.1266 286.841 89.3899 287.138 90.6531L288.253 97.1179L288.922 101.131C289.367 103.954 289.739 106.629 290.111 109.007C290.482 111.385 290.482 111.757 290.631 112.946C291.151 116.884 291.374 119.336 291.374 119.336Z" fill="#CFD8DC"/>
<path d="M277.701 57.2144C273.168 61.8215 265.217 68.5836 256.077 70.4413C254.068 70.8114 252.027 70.9856 249.984 70.9615C244.039 70.9615 237.203 69.7725 231.184 68.3607V64.4966C239.209 66.4286 248.869 68.0634 255.334 66.8002C263.954 65.0911 271.682 58.1061 275.695 53.8706C276.429 54.9448 277.099 56.0613 277.701 57.2144Z" fill="#8BBDDB"/>
<path d="M282.011 68.5836C277.33 72.8935 265.812 80.9931 243.742 80.9931C239.844 80.9737 235.95 80.7505 232.076 80.3243C231.853 78.8381 231.704 77.5006 231.556 76.4603C263.657 80.4729 277.552 67.9891 280.673 64.5709C281.119 65.8094 281.565 67.147 282.011 68.5836Z" fill="#8BBDDB"/>
<path d="M284.835 79.5069C275.918 84.5599 257.638 93.031 236.088 93.031H234.379L233.711 89.2413C256.077 89.91 275.398 80.5472 283.943 75.7172L284.835 79.5069Z" fill="#8BBDDB"/>
<path d="M287.138 90.6531C279.336 94.8887 259.644 104.4 236.906 105.589C236.683 104.326 236.386 103.137 236.163 101.874C259.273 100.833 279.782 90.5045 286.395 86.7891C286.618 88.1266 286.841 89.3899 287.138 90.6531Z" fill="#8BBDDB"/>
<path d="M288.922 101.131C280.005 106.332 260.759 115.992 239.209 116.364C238.912 115.101 238.689 113.912 238.392 112.648C260.239 112.425 280.302 101.874 288.253 97.118L288.922 101.131Z" fill="#8BBDDB"/>
<path d="M290.631 112.946C281.491 118.073 261.279 128.03 242.999 128.03H241.736C241.439 126.841 241.216 125.578 240.919 124.24C259.496 125.132 281.639 113.763 290.111 109.007C290.259 110.419 290.482 111.757 290.631 112.946Z" fill="#8BBDDB"/>
<path d="M257.415 54.8366C257.415 54.8366 256.82 59.8895 258.678 61.45C258.678 61.45 257.712 65.0168 254.963 65.6856C252.213 66.3543 249.91 63.0848 249.91 63.0848C249.91 63.0848 250.727 58.1804 248.721 56.9172L257.415 54.8366Z" fill="#EF6E4B"/>
<path d="M259.867 44.2105C259.867 44.2105 261.873 40.8666 257.118 35.5907C257.118 35.5907 254.888 30.5378 247.235 29.3488C239.581 28.1599 233.859 36.5567 233.859 41.1639C233.859 45.771 236.609 41.1639 236.609 41.1639C236.609 41.1639 237.203 44.3591 238.095 45.8453C238.095 45.8453 237.798 50.4524 240.696 50.4524C243.594 50.4524 259.867 44.2105 259.867 44.2105Z" fill="#105E99"/>
<path d="M242.256 49.7836C242.256 49.7836 239.209 48.2231 239.804 50.9725C240.398 53.7219 243.742 54.465 243.965 53.3504C244.188 52.2358 242.256 49.7836 242.256 49.7836Z" fill="#FF8B66"/>
<path d="M258.307 44.5077C258.307 44.5077 259.867 41.4611 260.982 44.0619C262.096 46.6627 260.016 49.2635 259.124 48.4461C258.232 47.6287 258.307 44.5077 258.307 44.5077Z" fill="#FF8B66"/>
<path d="M253.774 58.3291C248.721 60.0382 244.708 57.6603 241.364 47.7773C239.655 42.65 241.216 38.5631 246.937 36.7054C252.659 34.8477 256.003 37.1512 257.786 42.2785C261.353 52.9046 259.05 56.62 253.774 58.3291Z" fill="#FF8B66"/>
<path d="M257.266 46.3654C257.564 46.8113 257.266 47.4801 256.672 47.8516C256.421 48.0032 256.123 48.0567 255.835 48.0018C255.547 47.947 255.289 47.7876 255.111 47.5544C254.814 47.0342 255.111 46.4397 255.706 46.0682C255.957 45.9166 256.255 45.8631 256.543 45.918C256.831 45.9728 257.089 46.1322 257.266 46.3654Z" fill="#DB614D"/>
<path d="M246.937 50.1552C246.958 50.3017 246.95 50.451 246.912 50.5942C246.875 50.7374 246.809 50.8718 246.719 50.9894C246.629 51.1069 246.517 51.2055 246.389 51.2791C246.26 51.3528 246.118 51.4001 245.971 51.4184C245.303 51.567 244.634 51.2698 244.56 50.7496C244.485 50.2295 244.783 49.7093 245.451 49.4864C245.738 49.3876 246.051 49.4018 246.327 49.5261C246.603 49.6504 246.822 49.8754 246.937 50.1552Z" fill="#DB614D"/>
<path d="M253.179 41.9813H253.031C252.322 41.6827 251.528 41.6563 250.802 41.9069C250.653 41.9813 250.504 41.9069 250.504 41.7583C250.478 41.689 250.479 41.6125 250.507 41.5438C250.534 41.4751 250.586 41.4191 250.653 41.3868C251.499 41.0904 252.425 41.1169 253.254 41.4611C253.402 41.5354 253.402 41.7583 253.402 41.8326L253.179 41.9813Z" fill="#FFB878"/>
<path d="M243.668 45.1765H243.445C243.296 45.1022 243.296 44.9536 243.296 44.805C243.755 44.0134 244.5 43.4282 245.377 43.1702C245.406 43.1586 245.437 43.1534 245.469 43.1547C245.5 43.1561 245.531 43.164 245.559 43.178C245.587 43.1921 245.612 43.2118 245.632 43.2361C245.651 43.2604 245.666 43.2885 245.674 43.3188C245.7 43.3881 245.699 43.4646 245.672 43.5333C245.644 43.602 245.592 43.658 245.526 43.6903C244.808 43.9048 244.197 44.3826 243.817 45.0279C243.817 45.0673 243.801 45.1051 243.773 45.133C243.745 45.1608 243.707 45.1765 243.668 45.1765Z" fill="#FFB878"/>
<path d="M253.699 44.805C253.922 45.4737 253.774 46.0682 253.402 46.1425C253.031 46.2168 252.659 45.8453 252.436 45.2508C252.213 44.6563 252.288 43.9876 252.659 43.9133C253.031 43.839 253.477 44.2105 253.699 44.805Z" fill="#1A4850"/>
<path d="M246.937 47.1085C247.086 47.703 247.012 48.2974 246.64 48.4461C246.269 48.5947 245.823 48.1488 245.6 47.5544C245.377 46.9599 245.526 46.2911 245.897 46.1425C246.269 45.9939 246.715 46.4397 246.937 47.1085Z" fill="#1A4850"/>
<path d="M249.167 53.8706C249.167 53.8706 253.848 52.9046 255.78 51.0469C255.78 51.0469 255.483 54.5393 252.956 55.0595C252.277 55.2313 251.562 55.2112 250.893 55.0013C250.224 54.7914 249.627 54.4 249.167 53.8706Z" fill="#1A4850"/>
<path d="M252.288 51.0469C251.9 51.1497 251.5 51.1996 251.099 51.1955V50.6753C251.619 50.601 252.511 50.4524 252.585 50.1552C252.659 49.8579 252.585 49.9322 252.362 49.7093C252.139 49.4864 249.687 44.5077 249.613 44.3591L250.133 44.1362C250.133 44.1362 251.619 48.0745 252.808 49.3378C252.955 49.4639 253.066 49.6262 253.132 49.8086C253.197 49.9911 253.213 50.1873 253.179 50.3781C252.965 50.6944 252.651 50.9298 252.288 51.0469Z" fill="#DB614D"/>
<path d="M245.451 34.4018C234.082 38.6374 240.919 49.3378 240.919 49.3378L242.553 50.8239C241.81 47.7773 242.33 46.0682 242.33 46.0682C241.598 44.7032 241.387 43.1188 241.736 41.6097C243.148 40.4208 246.64 38.1172 253.179 37.4484C254.177 38.3904 254.874 39.605 255.186 40.9409C256.751 42.416 258.014 44.183 258.901 46.1425L259.05 43.4674C259.05 43.4674 256.449 30.3149 245.451 34.4018Z" fill="#FFB878"/>
<path d="M244.114 233.102L239.135 234.217C239.135 234.217 231.333 192.307 229.549 187.923C227.766 183.538 221.375 169.494 219.146 158.274C218.57 158.261 217.997 158.187 217.437 158.051L216.694 157.828L216.025 157.679C215.802 168.9 213.35 182.647 212.607 186.511C211.864 190.375 212.236 233.845 212.236 233.845L207.108 233.696C197.374 199.143 202.501 186.214 202.501 186.214C202.501 186.214 193.584 155.153 196.705 144.155C197.683 140.837 198.874 137.585 200.272 134.421L200.643 133.752C201.944 130.844 203.459 128.038 205.176 125.355L215.579 126.618L215.728 126.47H216.025V129.739H217.66L221.97 129.516H222.564L226.354 129.293C226.354 129.293 228.583 132.935 231.853 138.731L232.224 139.399L235.94 146.384C241.216 156.565 239.432 185.693 239.432 185.693C239.432 185.693 246.937 197.285 244.114 233.102Z" fill="#8BBDDB"/>
<path d="M208.594 126.544C208.594 126.618 205.845 133.009 200.272 134.421L200.643 133.752C205.622 132.191 208.074 126.395 208.074 126.321L208.594 126.544Z" fill="#6097B2"/>
<path d="M232.224 139.325C225.983 137.987 222.787 131.523 221.97 129.516L221.747 128.922L222.267 128.699C222.342 128.956 222.441 129.205 222.564 129.442C223.456 131.523 226.354 137.244 231.853 138.656L232.224 139.325Z" fill="#6097B2"/>
<path d="M217.437 158.051L216.694 157.828C214.899 154.282 213.599 150.506 212.83 146.607C210.824 137.987 215.282 128.773 215.356 128.699L215.802 128.922C215.802 128.996 211.418 138.062 213.35 146.459L213.573 147.499C213.647 147.722 213.647 147.87 213.722 148.093C214.546 151.553 215.794 154.897 217.437 158.051Z" fill="#6097B2"/>
<path d="M213.424 148.093H213.35V147.499C213.647 147.573 213.945 147.35 214.242 147.053C214.539 146.756 215.431 145.344 214.762 142.074C213.87 137.616 217.14 129.962 217.288 129.591L217.809 129.814C217.809 129.888 214.465 137.69 215.282 141.926C216.1 146.161 215.208 146.83 214.688 147.425C214.535 147.617 214.343 147.776 214.126 147.891C213.909 148.006 213.67 148.075 213.424 148.093Z" fill="#6097B2"/>
<path d="M213.573 85.9717C213.573 85.9717 215.208 82.9251 212.904 77.7978C210.601 72.6705 211.047 58.4777 222.713 59.0721C222.713 59.0721 229.624 57.8832 233.042 62.416C236.46 66.9488 239.358 82.9251 235.717 94.7401C232.076 106.555 208.892 103.434 213.573 85.9717Z" fill="#F24052"/>
<path d="M226.354 129.219C222.767 130.268 218.984 130.465 215.308 129.795C211.631 129.124 208.162 127.604 205.176 125.355C205.176 125.355 203.244 86.046 206.885 83.4452C208.446 82.2563 211.641 83.2223 214.613 84.6342C217.278 85.888 219.838 87.3541 222.267 89.0183C222.267 89.0183 229.029 88.0523 234.379 88.6468C237.798 89.0183 240.547 90.0587 240.696 92.2879C241.067 98.084 226.354 129.219 226.354 129.219Z" fill="#FF8B66"/>
<path d="M234.677 88.7211C232.373 88.4982 231.927 90.2816 229.624 91.099C227.677 91.8271 225.66 92.3501 223.605 92.6595C222.564 92.7338 221.97 94.0713 221.97 94.0713C221.97 94.0713 221.598 92.2879 221.078 92.1393C220.558 91.9907 215.654 87.1606 214.613 84.6342C217.278 85.888 219.838 87.3541 222.267 89.0183C222.267 89.0183 229.029 88.0523 234.379 88.6468L234.677 88.7211Z" fill="#EF6E4B"/>
<path d="M204.805 238.081C205.102 235.926 204.285 234.44 204.879 233.399C205.473 232.359 206.662 233.771 206.662 233.771C206.737 231.393 210.749 231.393 211.195 232.508C211.288 232.793 211.413 233.067 211.567 233.325C211.79 232.73 212.236 232.136 212.756 232.508C214.985 233.771 212.236 237.115 214.242 239.567C216.248 242.019 215.208 247.443 215.208 247.443H203.17C201.758 240.83 204.433 240.161 204.805 238.081Z" fill="#CFD8DC"/>
<path d="M212.236 237.263C212.236 237.263 209.338 235.777 205.622 237.783L206.365 236.372C207.198 235.908 208.122 235.635 209.073 235.57C210.024 235.506 210.977 235.653 211.864 236L212.236 237.263Z" fill="#ADBEC4"/>
<path d="M212.681 239.567C210.106 238.764 207.325 238.95 204.879 240.087L205.622 238.675C205.622 238.675 209.189 237.115 212.236 238.304L212.681 239.567Z" fill="#ADBEC4"/>
<path d="M246.343 238.081C246.046 235.926 246.789 234.44 246.269 233.399C245.749 232.359 244.485 233.771 244.485 233.771C244.411 231.393 240.324 231.393 239.952 232.508L239.581 233.325C239.358 232.73 238.912 232.136 238.318 232.508C236.163 233.771 238.838 237.115 236.906 239.567C234.974 242.019 235.94 247.443 235.94 247.443H247.978C249.39 240.83 246.64 240.161 246.343 238.081Z" fill="#CFD8DC"/>
<path d="M238.912 237.263C238.912 237.263 241.736 235.777 245.526 237.783L244.783 236.372C243.948 235.913 243.024 235.642 242.074 235.578C241.124 235.514 240.172 235.658 239.284 236L238.912 237.263Z" fill="#ADBEC4"/>
<path d="M238.392 239.567C240.992 238.767 243.796 238.952 246.269 240.087L245.526 238.675C245.526 238.675 241.959 237.115 238.912 238.304L238.392 239.567Z" fill="#ADBEC4"/>
<path d="M221.375 76.0887C221.375 76.0887 222.267 86.5662 219.369 88.0523C219.369 88.0523 221.524 91.9907 227.246 89.6128C227.246 89.6128 226.28 84.1883 230.144 77.7978C232.67 73.4879 221.375 76.0887 221.375 76.0887Z" fill="#EF6E4B"/>
<path d="M231.927 72.4476C231.927 72.4476 234.082 69.9211 234.602 72.6705C235.122 75.4199 232.373 77.2776 231.704 76.3116C231.035 75.3456 231.927 72.4476 231.927 72.4476Z" fill="#FF8B66"/>
<path d="M215.505 73.8595C215.505 73.8595 212.979 71.7045 212.904 74.4539C212.83 77.2034 215.802 78.6895 216.248 77.6492C216.694 76.6089 215.505 73.8595 215.505 73.8595Z" fill="#FF8B66"/>
<path d="M224.794 84.5599C229.995 84.1883 232.745 80.5472 231.927 70.2927C231.556 65.0911 228.583 62.0445 222.787 62.4903C216.991 62.9362 214.688 66.3543 215.134 71.6302C215.951 82.5535 219.443 84.9314 224.794 84.5599Z" fill="#FF8B66"/>
<path d="M217.14 75.1227C217.14 75.2658 217.169 75.4075 217.226 75.5388C217.282 75.6701 217.366 75.7883 217.47 75.8859C217.575 75.9835 217.699 76.0585 217.834 76.1062C217.968 76.1539 218.112 76.1733 218.255 76.163C218.391 76.1957 218.533 76.2002 218.672 76.1764C218.811 76.1526 218.943 76.1009 219.061 76.0245C219.179 75.9481 219.28 75.8485 219.359 75.7319C219.437 75.6152 219.491 75.4838 219.518 75.3456C219.518 75.2025 219.489 75.0609 219.432 74.9296C219.375 74.7983 219.292 74.6801 219.187 74.5825C219.083 74.4848 218.959 74.4098 218.824 74.3621C218.689 74.3144 218.546 74.2951 218.403 74.3053C218.266 74.2727 218.124 74.2682 217.986 74.292C217.847 74.3158 217.715 74.3675 217.597 74.4439C217.479 74.5203 217.377 74.6198 217.299 74.7365C217.22 74.8532 217.166 74.9846 217.14 75.1227Z" fill="#DB614D"/>
<path d="M227.84 74.6026C227.874 74.7423 227.936 74.8735 228.024 74.9879C228.111 75.1023 228.22 75.1974 228.346 75.2673C228.472 75.3371 228.611 75.3801 228.754 75.3936C228.897 75.4071 229.041 75.3908 229.178 75.3456C229.847 75.2713 230.367 74.7512 230.292 74.231C230.206 73.9599 230.02 73.7319 229.771 73.5937C229.523 73.4556 229.231 73.4177 228.955 73.4879C228.286 73.5622 227.766 74.0824 227.84 74.6026Z" fill="#DB614D"/>
<path d="M218.998 69.6239C219.072 69.6982 219.221 69.6239 219.295 69.5496C219.807 69.0241 220.495 68.7065 221.227 68.6579C221.306 68.6579 221.381 68.6266 221.437 68.5708C221.493 68.5151 221.524 68.4395 221.524 68.3607C221.45 68.2121 221.375 68.1377 221.227 68.1377C220.332 68.1736 219.483 68.545 218.849 69.1781C218.775 69.3267 218.775 69.4753 218.923 69.5496C219.072 69.6239 218.923 69.6239 218.998 69.6239Z" fill="#F24052"/>
<path d="M226.503 68.212H226.651C227.385 68.1342 228.122 68.3185 228.732 68.7322C228.806 68.8808 229.029 68.8065 229.103 68.7322C229.136 68.6757 229.153 68.6117 229.153 68.5464C229.153 68.4812 229.136 68.4172 229.103 68.3607C228.758 68.0688 228.353 67.8573 227.916 67.7416C227.479 67.6259 227.021 67.609 226.577 67.6919C226.518 67.6919 226.461 67.7154 226.419 67.7572C226.378 67.799 226.354 67.8557 226.354 67.9148C226.354 68.1377 226.428 68.212 226.503 68.212Z" fill="#F24052"/>
<path d="M219.741 72.3733C219.815 73.0421 220.112 73.4879 220.484 73.4879C220.855 73.4879 221.153 72.8935 221.078 72.299C221.004 71.7045 220.707 71.1101 220.335 71.1101C219.964 71.1101 219.741 71.7045 219.741 72.3733Z" fill="#1A4850"/>
<path d="M226.949 71.7788C227.023 72.4476 227.32 72.8935 227.692 72.8935C228.063 72.8935 228.286 72.299 228.286 71.7045C228.286 71.1101 227.915 70.5156 227.543 70.5156C227.171 70.5156 226.949 71.1101 226.949 71.7788Z" fill="#1A4850"/>
<path d="M226.577 78.1694C226.577 78.1694 223.307 78.8381 221.598 78.095C221.598 78.095 222.713 80.4729 224.496 80.1014C224.986 79.9991 225.439 79.7652 225.805 79.4247C226.172 79.0843 226.439 78.6502 226.577 78.1694Z" fill="#1A4850"/>
<path d="M221.524 71.9275C221.524 71.9275 220.93 70.367 220.261 70.5156C219.592 70.6642 219.295 72.0761 219.295 72.0761L218.329 71.6302H219.295C219.295 71.6302 219.666 70.1441 220.261 70.1441C220.855 70.1441 221.524 71.9275 221.524 71.9275Z" fill="#1A4850"/>
<path d="M226.577 71.7045C226.577 71.7045 226.949 70.0698 227.543 70.1441C228.137 70.2184 228.806 71.5559 228.806 71.5559L229.624 70.9615L228.732 71.1844C228.732 71.1844 228.137 69.7725 227.543 69.8468C226.949 69.9211 226.577 71.7045 226.577 71.7045Z" fill="#1A4850"/>
<path d="M223.753 75.7172H224.125V75.197C223.967 75.197 223.816 75.1344 223.704 75.0229C223.593 74.9114 223.53 74.7602 223.53 74.6026C223.525 74.4757 223.548 74.3491 223.6 74.233C223.652 74.117 223.729 74.0145 223.828 73.9338C223.902 73.8595 224.051 73.9338 224.125 74.0824L224.571 73.7852C224.477 73.6213 224.33 73.4947 224.154 73.427C223.978 73.3593 223.784 73.3546 223.605 73.4136C223.391 73.5456 223.216 73.7323 223.099 73.9544C222.981 74.1764 222.925 74.4258 222.936 74.6769C222.963 74.9089 223.053 75.1289 223.198 75.3126C223.342 75.4962 223.534 75.6363 223.753 75.7172Z" fill="#DB614D"/>
<path d="M224.645 64.1251C224.645 64.1251 226.577 63.5306 227.394 66.4287C228.806 71.5559 229.772 79.8041 233.042 83.9654C235.494 86.9377 236.906 85.6745 236.906 85.6745C237.282 83.7179 237.154 81.6977 236.534 79.8041C235.568 76.9061 236.832 66.28 233.042 62.416C229.252 58.552 222.713 61.0785 222.713 61.0785C222.713 61.0785 219.518 59.1465 216.397 61.0785C213.276 63.0105 212.384 71.4816 215.579 75.197C215.579 75.197 215.356 72.0018 216.768 70.8128C218.18 69.6239 218.923 62.5646 224.645 64.1251Z" fill="#F24052"/>
<path d="M200.198 22.2896C199.009 26.1536 201.981 27.8627 199.752 30.5378C197.522 33.2129 196.334 30.835 196.334 30.835C195.141 28.6295 193.612 26.6238 191.801 24.8904C190.612 23.7014 191.504 23.7014 191.504 23.7014L191.132 23.4042C190.24 22.7354 189.423 22.3639 190.315 22.0667C191.206 21.7694 193.881 23.6271 193.881 23.6271C190.76 20.1346 189.572 20.4319 190.389 20.1346C191.206 19.8374 194.699 22.2153 194.847 22.2896C193.287 19.9117 191.949 19.0943 192.841 19.02C193.733 18.9457 196.928 22.8097 198.117 24.2959L198.563 24.8161C199.306 21.6208 200.198 22.2896 200.198 22.2896Z" fill="#FF8B66"/>
<path d="M198.117 24.2959L198.563 24.8161C198.257 25.1818 198.05 25.619 197.959 26.0867C197.868 26.5544 197.897 27.0376 198.043 27.4911C197.656 27.0445 197.449 26.4699 197.463 25.8792C197.477 25.2885 197.71 24.7241 198.117 24.2959Z" fill="#EF6E4B"/>
<path d="M194.179 25.6334C193.881 25.4105 192.247 23.85 191.504 23.7014L191.132 23.4042C191.801 22.884 193.881 25.2619 194.179 25.6334Z" fill="#EF6E4B"/>
<path d="M199.752 30.5378C199.752 30.5378 199.306 56.0255 198.043 61.0785C198.043 61.0785 202.65 77.0547 209.56 82.8508C209.56 82.8508 210.675 87.1606 204.656 95.7061C204.656 95.7061 192.99 74.8255 191.132 62.9362L196.334 30.835L199.752 30.5378Z" fill="#FF8B66"/>
<path d="M215.059 84.8571C215.654 86.9377 216.025 94.3685 223.01 98.1583C229.995 101.948 237.575 96.3749 239.655 90.2816C239.655 90.2816 240.473 89.0184 243.296 92.1393C243.296 92.1393 257.861 99.2729 259.793 102.914C261.725 106.555 260.536 120.674 254.666 120.897C248.795 121.12 241.736 114.58 239.878 118.89C238.02 123.2 227.171 138.359 204.656 126.098C204.656 126.098 201.832 122.606 201.832 119.41C201.832 116.215 200.421 95.4089 200.421 95.4089C200.421 95.4089 192.098 93.031 194.179 73.4136C194.179 73.4136 199.9 76.6089 199.752 66.1314C199.752 66.1314 204.433 63.9765 205.994 72.7449C207.034 78.6152 212.904 82.9251 212.904 82.9251C212.904 82.9251 214.168 81.5875 215.059 84.8571Z" fill="#105E99"/>
<path d="M263.062 110.196C268.041 108.116 278.964 99.1243 282.903 93.8484L280.525 91.6934C280.525 91.6934 267.669 100.462 262.765 102.022C257.861 103.583 255.186 106.406 255.78 109.899C256.375 113.391 262.022 110.642 263.062 110.196Z" fill="#FF8B66"/>
<path d="M286.99 86.4919C284.537 89.7614 281.416 88.3496 280.525 91.6934C280.005 93.7741 282.308 94.5915 282.308 94.5915C284.808 94.3232 287.333 94.3982 289.813 94.8144C291.448 95.1116 290.928 94.3686 290.928 94.3686L291.374 94.5172C292.488 94.8887 293.231 95.2602 292.934 94.4429C292.637 93.6255 289.59 92.3622 289.59 92.3622C294.272 92.8824 294.718 94.0713 294.495 93.1796C294.272 92.2879 290.259 90.9504 290.111 90.8761C293.009 90.7274 294.42 91.3219 293.975 90.5788C293.529 89.8357 288.476 89.4642 286.618 89.3899H285.949C288.03 86.8634 286.99 86.4919 286.99 86.4919Z" fill="#FF8B66"/>
<path d="M286.618 89.3899H285.949C285.835 89.8661 285.596 90.3031 285.256 90.6558C284.917 91.0085 284.489 91.2641 284.017 91.3962C284.622 91.4428 285.223 91.2634 285.703 90.8929C286.184 90.5223 286.51 89.9868 286.618 89.3899Z" fill="#EF6E4B"/>
<path d="M287.733 93.3282C288.179 93.4025 290.408 93.8484 290.928 94.3685L291.374 94.5172C291.448 93.6255 288.253 93.4025 287.733 93.3282Z" fill="#EF6E4B"/>
<path d="M146.919 144.155C148.94 137.293 152.133 130.832 156.356 125.058L165.793 126.618V126.47L166.536 126.618H166.685L176.419 128.625C179.461 134.628 181.805 140.961 183.404 147.499C186.228 158.571 177.905 186.511 177.905 186.511C177.905 186.511 182.587 199.589 171.663 233.771H166.536C166.536 233.771 168.468 191.192 167.725 186.511C166.982 181.829 166.239 167.488 166.685 156.119C166.071 156.217 165.447 156.242 164.827 156.193C164.827 167.636 163.489 182.498 162.746 186.511C162.003 190.523 162.3 233.845 162.3 233.845L157.173 233.696C147.439 199.143 152.566 186.214 152.566 186.214C152.566 186.214 143.723 155.153 146.919 144.155Z" fill="#FF8B66"/>
<path d="M190.909 92.2879C190.538 86.4919 172.481 89.0183 172.481 89.0183C172.481 89.0183 160.666 80.8444 157.099 83.4452C155.761 84.3369 155.167 89.91 154.944 96.6721C153.606 99.05 152.417 102.691 154.87 106.035C154.87 115.918 155.315 125.355 155.315 125.355C158.301 127.604 161.77 129.124 165.447 129.795C169.124 130.465 172.906 130.268 176.493 129.219C176.493 129.219 180.877 120.079 184.741 110.716C185.806 109.814 186.633 108.666 187.151 107.37C187.669 106.075 187.863 104.673 187.714 103.286C189.646 98.3069 190.983 94.0713 190.909 92.2879Z" fill="#0E3944"/>
<path d="M188.605 62.7133C183.33 53.722 170.103 54.8366 165.496 60.7069C159.997 67.7662 162.969 84.2626 162.969 84.2626C162.969 84.2626 175.602 73.7109 183.181 88.1267C183.181 88.1267 194.476 72.7449 188.605 62.7133Z" fill="#FFB878"/>
<path d="M154.944 238.081C155.241 235.926 154.498 234.44 155.018 233.399C155.538 232.359 156.802 233.771 156.802 233.771C156.876 231.393 160.963 231.393 161.334 232.508L161.706 233.325C162.003 232.73 162.375 232.136 162.969 232.508C165.124 233.771 162.449 237.115 164.381 239.567C166.313 242.019 165.347 247.443 165.347 247.443H153.309C151.897 240.83 154.647 240.161 154.944 238.081Z" fill="#0E3944"/>
<path d="M162.375 237.263C162.375 237.263 159.551 235.777 155.761 237.783L156.504 236.372C157.352 235.912 158.288 235.64 159.25 235.576C160.212 235.512 161.177 235.657 162.077 236L162.375 237.263Z" fill="#205260"/>
<path d="M162.895 239.567C162.895 239.567 158.808 238.155 155.092 240.087L155.761 238.675C155.761 238.675 159.402 237.115 162.375 238.304L162.895 239.567Z" fill="#205260"/>
<path d="M174.19 238.081C173.892 235.926 174.71 234.44 174.115 233.399C173.521 232.359 172.332 233.771 172.332 233.771C172.258 231.393 168.245 231.393 167.799 232.508C167.706 232.793 167.582 233.067 167.428 233.325C167.205 232.73 166.759 232.136 166.239 232.508C164.084 233.771 166.759 237.115 164.753 239.567C162.746 242.019 163.787 247.443 163.787 247.443H175.824C177.236 240.83 174.561 240.161 174.19 238.081Z" fill="#0E3944"/>
<path d="M166.759 237.263C166.759 237.263 169.657 235.777 173.372 237.783L172.629 236.372C171.797 235.908 170.872 235.635 169.921 235.57C168.971 235.506 168.018 235.653 167.13 236L166.759 237.263Z" fill="#205260"/>
<path d="M166.313 239.567C168.888 238.764 171.67 238.95 174.115 240.087L173.372 238.675C173.372 238.675 169.806 237.115 166.759 238.304L166.313 239.567Z" fill="#205260"/>
<path d="M171.589 76.0887C171.814 80.1829 171.102 84.2744 169.508 88.0523C169.508 88.0523 171.663 91.9907 177.459 89.6128C177.459 89.6128 176.493 84.1883 180.283 77.7978C182.884 73.4879 171.589 76.0887 171.589 76.0887Z" fill="#EF6E4B"/>
<path d="M184.37 73.1164C184.37 73.1164 187.119 71.1844 186.896 73.9338C186.673 76.6832 183.553 77.8721 183.181 76.7575C182.809 75.6429 184.37 73.1164 184.37 73.1164Z" fill="#FF8B66"/>
<path d="M168.096 70.2184C168.096 70.2184 166.239 67.469 165.421 70.1441C164.604 72.8192 167.13 74.9741 167.874 74.0824C168.617 73.1907 168.096 70.2184 168.096 70.2184Z" fill="#FF8B66"/>
<path d="M174.413 82.9251C179.54 83.8911 183.032 81.0674 184.89 71.0358C185.856 65.8342 183.85 62.1931 178.054 61.0785C172.258 59.9638 169.285 62.7876 168.319 67.9148C166.313 78.7638 169.062 81.9591 174.413 82.9251Z" fill="#FF8B66"/>
<path d="M169.36 71.8532C169.311 72.1373 169.366 72.4296 169.517 72.6757C169.667 72.9218 169.902 73.1048 170.177 73.1907C170.446 73.3002 170.745 73.3077 171.019 73.2119C171.292 73.1161 171.522 72.9236 171.663 72.6705C171.812 72.2247 171.44 71.6302 170.846 71.333C170.577 71.2235 170.278 71.216 170.004 71.3118C169.731 71.4076 169.501 71.6001 169.36 71.8532Z" fill="#DB614D"/>
<path d="M179.911 74.0824C179.901 74.2251 179.921 74.3684 179.968 74.5034C180.016 74.6383 180.091 74.7619 180.189 74.8665C180.286 74.9712 180.404 75.0545 180.536 75.1114C180.667 75.1682 180.809 75.1974 180.952 75.197C181.237 75.2643 181.538 75.2162 181.789 75.0632C182.039 74.9101 182.219 74.6645 182.289 74.3796C182.364 73.8595 181.843 73.3393 181.175 73.265C180.9 73.2188 180.618 73.2771 180.384 73.4284C180.151 73.5797 179.982 73.813 179.911 74.0824Z" fill="#DB614D"/>
<path d="M172.555 67.0231H172.926C173.556 66.6611 174.291 66.5297 175.007 66.6516C175.156 66.7259 175.304 66.6516 175.304 66.503C175.33 66.4337 175.329 66.3572 175.302 66.2884C175.274 66.2197 175.222 66.1637 175.156 66.1314C174.287 65.9686 173.389 66.1271 172.629 66.5773C172.594 66.5906 172.562 66.6127 172.538 66.6416C172.513 66.6705 172.496 66.7052 172.489 66.7424C172.481 66.7796 172.483 66.8181 172.495 66.8542C172.507 66.8903 172.527 66.9229 172.555 66.9488V67.0231Z" fill="#FFB878"/>
<path d="M180.209 67.6176H180.357C181.075 67.7474 181.729 68.1136 182.215 68.6579C182.289 68.8065 182.438 68.8065 182.587 68.7322C182.64 68.6886 182.677 68.6276 182.691 68.5598C182.704 68.492 182.694 68.4216 182.661 68.3607C182.1 67.678 181.305 67.2278 180.432 67.0974C180.283 67.0974 180.134 67.1717 180.134 67.3203C180.119 67.372 180.117 67.4269 180.13 67.4793C180.143 67.5316 180.17 67.5795 180.209 67.6176Z" fill="#FFB878"/>
<path d="M172.629 69.8468C172.555 70.5156 172.704 71.1101 173.075 71.1844C173.447 71.2587 173.818 70.7385 173.892 70.1441C173.967 69.5496 173.818 68.8808 173.521 68.8065C173.224 68.7322 172.778 69.2524 172.629 69.8468Z" fill="#1A4850"/>
<path d="M179.614 71.2587C179.54 71.9275 179.689 72.5219 180.06 72.5962C180.432 72.6705 180.803 72.1504 180.952 71.5559C181.1 70.9615 180.877 70.2927 180.506 70.2184C180.134 70.1441 179.763 70.6642 179.614 71.2587Z" fill="#1A4850"/>
<path d="M177.682 77.2033C177.682 77.2033 174.413 77.0547 172.926 75.9401C172.926 75.9401 173.447 78.4666 175.23 78.5409C175.726 78.594 176.227 78.4944 176.665 78.2554C177.103 78.0164 177.458 77.6494 177.682 77.2033Z" fill="#1A4850"/>
<path d="M174.413 69.8468C174.413 69.8468 174.264 68.212 173.595 68.212C172.926 68.212 172.258 69.4753 172.258 69.4753L171.44 68.8065L172.332 69.1037C172.332 69.1037 173.075 67.7662 173.67 67.9148C174.264 68.0634 174.413 69.8468 174.413 69.8468Z" fill="#1A4850"/>
<path d="M179.391 71.0358C179.391 71.0358 180.134 69.5496 180.729 69.7725C181.323 69.9954 181.546 71.4073 181.546 71.4073L182.587 71.1101H181.621C181.621 71.1101 181.398 69.6239 180.803 69.4753C180.209 69.3267 179.391 71.0358 179.391 71.0358Z" fill="#1A4850"/>
<path d="M175.602 74.0824C175.676 74.231 175.824 74.231 175.973 74.3053L176.196 73.7852C175.75 73.6365 175.676 73.3393 175.75 73.1164C175.824 72.8935 176.047 72.5219 176.196 72.5219C176.345 72.5219 176.419 72.5962 176.493 72.7448L177.013 72.5962C176.791 72.0018 176.345 71.9275 176.122 72.0018C175.899 72.0761 175.304 72.4476 175.156 72.9678C175.124 73.1764 175.149 73.3896 175.228 73.5855C175.306 73.7814 175.435 73.9529 175.602 74.0824Z" fill="#DB614D"/>
<path d="M167.799 72.0018C167.799 72.0018 165.644 65.7599 169.508 60.6326C173.372 55.5053 183.85 59.3694 185.782 63.3077C187.714 67.246 183.924 75.1227 183.924 75.1227C183.924 75.1227 186.822 64.6453 181.026 62.8619C181.026 62.8619 180.283 65.537 175.75 67.3947C171.217 69.2524 168.691 68.9551 168.691 68.9551L167.799 72.0018Z" fill="#FFB878"/>
<path d="M186.228 88.944C186.228 88.944 192.767 89.0184 208.966 105.292C211.195 107.521 208.669 114.58 201.981 110.196C195.293 105.812 189.646 100.462 188.16 102.32C188.16 102.32 184.296 93.031 186.228 88.944Z" fill="#EF6E4B"/>
<path d="M209.932 104.326C209.858 98.9757 205.622 85.3772 202.278 79.8041L199.38 81.1417C199.38 81.1417 202.575 96.3749 202.13 101.576C201.684 106.778 203.393 110.196 206.885 111.014C210.378 111.831 209.932 105.44 209.932 104.326Z" fill="#FF8B66"/>
<path d="M197.002 73.265C199.083 76.7575 196.631 79.1354 199.38 81.1417C202.13 83.148 202.724 80.6215 202.724 80.6215C203.395 78.2041 204.421 75.9001 205.771 73.7852C206.662 72.3733 205.771 72.5219 205.771 72.5219C205.771 72.5219 205.994 72.299 206.068 72.2247C206.142 72.1504 207.48 70.8128 206.588 70.7385C205.696 70.6642 203.393 73.0421 203.393 73.0421C205.622 68.8808 206.885 68.9551 205.994 68.8065C205.102 68.6579 202.278 71.9275 202.204 72.0018C203.17 69.3267 204.285 68.2121 203.393 68.2864C202.501 68.3607 200.272 72.9678 199.529 74.6769C199.4 74.8856 199.3 75.1105 199.232 75.3456C197.671 72.3733 197.002 73.265 197.002 73.265Z" fill="#FF8B66"/>
<path d="M199.529 74.6769C199.4 74.8856 199.3 75.1105 199.232 75.3456C199.604 75.6279 199.896 76.0028 200.079 76.433C200.261 76.8633 200.328 77.3338 200.272 77.7978C200.544 77.2751 200.618 76.672 200.482 76.099C200.345 75.5259 200.007 75.0211 199.529 74.6769Z" fill="#EF6E4B"/>
<path d="M203.616 75.1227C203.839 74.7512 205.028 72.8935 205.771 72.5219C206.514 72.1504 205.994 72.299 206.068 72.2247C206.142 72.1504 203.839 74.6769 203.616 75.1227Z" fill="#EF6E4B"/>
<path d="M159.328 82.9251C159.328 82.9251 152.789 81.5875 133.617 94.1456C130.942 95.8547 131.983 103.286 139.488 100.462C146.993 97.6381 153.904 93.3282 155.018 95.4832C155.018 95.4832 160.294 87.3093 159.328 82.9251Z" fill="#EF6E4B"/>
<path d="M132.874 93.031C133.989 87.7551 140.974 75.3456 145.358 70.5899L147.959 72.5219C147.959 72.5219 141.643 86.7148 141.048 91.9164C140.454 97.118 138.076 100.09 134.509 100.165C130.942 100.239 132.651 94.1456 132.874 93.031Z" fill="#FF8B66"/>
<path d="M151.897 65.2397C149.148 68.212 151.08 71.0358 147.959 72.5219C146.027 73.4136 144.764 71.333 144.764 71.333C144.6 68.8186 144.074 66.341 143.203 63.9765C142.609 62.416 143.426 62.7875 143.426 62.7875L143.203 62.3417C142.683 61.3757 142.163 60.7069 143.055 60.8555C143.946 61.0041 145.655 63.7535 145.655 63.7535C144.318 59.2207 143.055 58.9978 144.021 59.0721C144.987 59.1464 146.993 62.8619 146.993 62.9362C146.696 60.1125 145.804 58.7749 146.621 59.0721C147.439 59.3694 148.702 64.348 149.148 66.1314C149.182 66.3575 149.231 66.581 149.296 66.8002C151.377 64.2737 151.897 65.2397 151.897 65.2397Z" fill="#FF8B66"/>
<path d="M149.148 66.1314C149.182 66.3575 149.231 66.581 149.296 66.8002C148.865 67.0044 148.495 67.3174 148.221 67.7082C147.948 68.0991 147.78 68.5544 147.736 69.0294C147.581 68.4573 147.639 67.8486 147.899 67.3158C148.158 66.7831 148.602 66.3623 149.148 66.1314Z" fill="#EF6E4B"/>
<path d="M144.987 65.6856C144.912 65.314 144.095 63.2334 143.426 62.7876L143.203 62.3417C144.095 62.1931 144.912 65.2397 144.987 65.6856Z" fill="#EF6E4B"/>
<path d="M155.241 123.423C155.241 123.423 133.172 153.667 140.082 185.693C140.082 185.693 147.587 192.604 153.458 190.226C159.328 187.848 165.347 196.468 170.623 193.719C175.899 190.969 180.432 188.889 184.073 190.375C187.714 191.861 193.807 185.693 193.807 185.693C193.807 185.693 191.132 150.248 177.682 126.841C177.682 126.841 166.759 131.894 155.241 123.423Z" fill="#FFB878"/>
<path d="M164.381 239.567C165.161 240.705 165.696 241.993 165.952 243.349C166.208 244.705 166.179 246.099 165.867 247.443H163.787C163.548 244.803 163.749 242.142 164.381 239.567Z" fill="#07262D"/>
<path d="M92.7479 157.382C92.7479 157.382 96.7605 170.089 106.569 187.105C106.569 187.105 104.934 205.162 132.874 238.601L136.738 236.446C136.738 236.446 122.323 202.859 120.019 192.901C117.715 182.944 118.681 169.643 111.176 148.836L92.7479 157.382Z" fill="#FF8B66"/>
<path d="M109.764 131.82L96.5376 126.47C94.2341 133.826 88.2894 139.102 88.8096 150.62C89.0325 156.267 92.7479 162.138 92.7479 162.138C108.353 161.617 113.629 155.078 113.629 155.078L111.251 144.081C111.251 144.081 109.69 136.65 109.764 131.82Z" fill="#CE364C"/>
<path d="M78.4064 148.911C78.4064 148.911 77.9606 162.212 81.6017 181.532C81.6017 181.532 74.0222 197.954 89.1811 238.824L93.491 238.081C93.491 238.081 91.1874 201.595 92.3021 191.489C93.4167 181.383 99.287 172.318 98.6926 146.979L78.4064 148.911Z" fill="#FF8B66"/>
<path d="M109.764 131.82L104.563 140.737L103.3 142.817L100.55 147.425L98.8412 159.685V160.503C85.4657 159.017 78.3321 163.178 78.3321 163.178L78.1835 161.989V161.617C78.1835 161.543 78.1835 161.543 78.1092 161.469C76.9203 157.753 75.1369 147.87 77.2175 141.183C80.6357 130.185 86.7289 131.225 91.3361 125.058L109.764 131.82Z" fill="#F24052"/>
<path d="M86.506 235.034C86.506 235.034 88.2151 238.824 87.695 241.425C87.1748 244.025 85.6886 244.917 87.0262 247.443H97.5036C97.8289 246.513 97.8829 245.508 97.6592 244.548C97.4356 243.587 96.9435 242.71 96.2404 242.019C94.9029 240.607 93.8625 233.919 93.8625 233.919C93.7249 233.91 93.587 233.935 93.4619 233.993C93.3367 234.051 93.2283 234.14 93.1467 234.251C93.0651 234.363 93.013 234.493 92.9952 234.63C92.9775 234.766 92.9946 234.906 93.0451 235.034C93.0451 235.034 93.0451 231.913 90.4444 232.285C87.8436 232.656 87.9922 235.554 87.9922 235.554C87.9374 235.415 87.8532 235.29 87.7456 235.186C87.6379 235.083 87.5091 235.003 87.3681 234.954C87.2271 234.905 87.0771 234.886 86.9284 234.9C86.7796 234.914 86.6355 234.96 86.506 235.034Z" fill="#0C476B"/>
<path d="M149.222 247.443H131.611C131.611 247.443 131.165 243.654 131.908 242.465C132.651 241.276 129.159 236.669 129.159 236.669C129.159 236.669 131.537 233.696 133.617 235.406C133.617 235.406 133.395 231.764 135.995 231.764C135.995 231.764 138.447 237.932 141.197 240.161L141.42 240.31C143.5 241.796 147.216 242.168 148.702 244.248C149.029 244.705 149.246 245.231 149.337 245.785C149.427 246.339 149.388 246.907 149.222 247.443Z" fill="#0C476B"/>
<path d="M99.5843 159.908L99.3613 160.429L98.7669 160.28C87.6949 157.233 80.1155 160.8 78.0349 161.989V161.617C78.0349 161.543 78.0349 161.543 77.9606 161.469C79.655 160.509 81.4833 159.808 83.3851 159.388C82.89 154.073 82.9149 148.722 83.4594 143.412C84.3511 134.867 92.7479 129.665 92.8222 129.665L93.1195 130.111C93.0451 130.185 87.1748 133.826 84.7969 139.994C92.5993 139.919 95.6459 130.185 95.7202 130.111L96.2404 130.259C96.1661 130.408 92.9708 140.588 84.7226 140.588H84.6483C84.2699 141.512 84.0441 142.49 83.9795 143.486C83.4075 148.722 83.4075 154.004 83.9795 159.24C88.9174 158.14 94.052 158.293 98.9155 159.685L99.5843 159.908Z" fill="#CE364C"/>
<path d="M105.232 134.346C105.232 134.421 104.489 142 100.996 147.796L101.442 148.093C105.009 142.223 105.752 134.495 105.826 134.421L105.232 134.346Z" fill="#CE364C"/>
<path d="M129.233 130.928C129.233 130.928 127.896 137.096 126.558 137.542C125.221 137.987 126.335 134.346 126.335 134.346C126.335 134.346 116.675 130.482 112.737 130.185C108.798 129.888 114.372 122.383 129.233 130.928Z" fill="#0C476B"/>
<path d="M127.524 132.043C127.524 132.043 117.418 127.436 110.359 127.807C103.3 128.179 120.093 104.772 124.329 107.15C128.564 109.527 129.382 129.07 127.524 132.043Z" fill="#0C476B"/>
<path d="M102.334 87.1606C102.334 87.1606 103.374 84.5599 108.353 84.114C113.331 83.6682 117.864 88.8697 116.898 91.9907C115.932 95.1116 102.334 87.1606 102.334 87.1606Z" fill="#0C476B"/>
<path d="M110.359 65.0168C110.359 65.0168 109.987 58.4777 103.894 57.4374C97.8009 56.397 92.9708 57.9575 95.1258 66.6516C97.2807 75.3456 95.8689 78.8381 91.8562 79.284C87.8436 79.7298 88.1408 74.9741 88.1408 74.9741C87.9365 76.2173 88.1838 77.4925 88.838 78.5692C89.4922 79.6459 90.5101 80.453 91.7076 80.8444C91.7076 80.8444 87.1005 81.216 88.7353 84.114C90.37 87.012 95.4973 86.5662 97.5036 84.114C97.5036 84.114 97.6523 86.046 100.179 85.3772C99.8523 85.2603 99.577 85.0328 99.4006 84.7343C99.2242 84.4357 99.1577 84.0849 99.2127 83.7425C99.287 82.4792 106.198 84.6342 108.353 76.5346C110.508 68.435 106.198 67.0231 106.198 67.0231L110.359 65.0168Z" fill="#0E3944"/>
<path d="M121.951 90.8017C118.236 90.6531 118.087 94.2942 119.945 97.861C121.802 101.428 139.934 117.701 142.683 114.655C143.798 113.466 140.677 108.041 140.677 108.041C136.502 104.267 132.557 100.247 128.862 96.0033C125.815 92.5108 123.809 90.8761 121.951 90.8017Z" fill="#FF8B66"/>
<path d="M145.135 108.784C146.176 103.508 144.689 89.3899 142.46 83.2223L139.339 83.9654C139.339 83.9654 139.562 99.5701 138.076 104.549C136.59 109.527 137.556 113.243 140.825 114.729C144.095 116.215 144.912 109.899 145.135 108.784Z" fill="#FF8B66"/>
<path d="M135.772 79.8041C139.116 82.1077 137.927 85.3029 141.345 85.9717C141.908 86.0795 142.491 85.9735 142.98 85.6745C143.364 85.3882 143.659 84.9987 143.83 84.5514C144.001 84.1041 144.041 83.6174 143.946 83.148C143.702 80.9763 143.677 78.7855 143.872 76.6089C144.095 74.8998 143.426 75.4199 143.426 75.4199C143.426 75.4199 143.5 75.1227 143.5 74.9741C143.5 74.8255 144.169 73.1164 143.352 73.4136C142.534 73.7109 141.494 76.9061 141.494 76.9061C141.717 72.1504 142.832 71.7045 142.014 71.9275C141.197 72.1504 140.008 76.3116 139.934 76.4603C139.636 73.6365 140.157 72.1504 139.413 72.5962C138.67 73.0421 138.67 78.1694 138.67 80.0271V80.7701C135.995 78.7638 135.772 79.8041 135.772 79.8041Z" fill="#FF8B66"/>
<path d="M138.67 80.0271V80.7701C139.139 80.8489 139.575 81.0579 139.93 81.3733C140.285 81.6888 140.544 82.0978 140.677 82.5535C140.704 81.961 140.516 81.3784 140.148 80.9139C139.779 80.4493 139.254 80.1343 138.67 80.0271Z" fill="#EF6E4B"/>
<path d="M142.534 78.6895C142.609 78.2437 142.906 76.0144 143.426 75.42C143.946 74.8255 143.5 75.1227 143.5 74.9741C143.5 74.8255 142.534 78.1694 142.534 78.6895Z" fill="#EF6E4B"/>
<path d="M116.527 90.5788C116.527 90.5788 121.505 88.4982 127.673 92.1393C131.538 94.6056 134.852 97.8437 137.407 101.651C137.407 101.651 137.481 90.7274 139.339 88.944C139.339 88.944 141.643 91.6191 144.466 92.1393C144.466 92.1393 151.823 107.298 147.142 116.661C142.46 126.024 128.787 116.661 128.787 116.661L116.527 90.5788Z" fill="#0C476B"/>
<path d="M91.1131 125.058C91.1131 125.058 94.7542 115.398 92.8965 109.899C89.7013 100.536 91.4104 92.5851 94.8285 90.2073C100.253 86.4176 111.697 90.7274 111.697 90.7274C111.697 90.7274 122.768 89.5385 123.883 92.9567C124.998 96.3749 127.673 109.973 122.397 117.255C117.121 124.538 109.764 135.833 109.764 135.833C109.764 135.833 94.0855 134.346 91.1131 125.058Z" fill="#CFD8DC"/>
<path d="M97.5036 130.928C97.5036 130.928 95.9432 136.13 94.0112 135.833C92.0791 135.535 83.608 130.928 83.608 130.185C83.608 129.442 84.7969 127.807 84.7969 127.807C84.7969 127.807 84.3511 123.795 85.3914 123.423C86.4317 123.052 97.5036 130.928 97.5036 130.928Z" fill="#0C476B"/>
<path d="M115.338 88.944C115.338 88.944 126.93 109.007 126.335 134.346C126.335 134.346 131.611 133.009 132.577 123.497C133.543 113.986 130.199 95.8547 125.592 91.099C125.592 91.099 122.248 87.6808 115.338 88.944Z" fill="#105E99"/>
<path d="M105.529 88.0524C105.529 88.0524 114.149 118.965 97.5036 130.928C92.9194 130.469 88.6501 128.387 85.4657 125.058C80.4871 119.633 87.2491 90.2073 87.2491 90.2073C87.2491 90.2073 96.1661 84.3369 105.529 88.0524Z" fill="#105E99"/>
<path d="M107.312 97.7124C107.312 97.7124 107.238 88.4239 106.198 86.046C105.157 83.6682 102.334 87.1606 102.334 87.1606C102.334 87.1606 103.151 91.4705 107.312 97.7124Z" fill="#0C476B"/>
<path d="M119.053 96.8207C119.053 96.8207 120.093 87.6808 116.972 86.1203C113.851 84.5599 113.777 90.2073 113.777 90.2073C113.777 90.2073 116.527 89.91 119.053 96.8207Z" fill="#0C476B"/>
<path d="M109.987 78.095C109.987 78.095 110.731 84.4112 108.353 90.133C108.353 90.133 111.697 95.1116 114.892 91.8421C115.326 87.51 116.641 83.3124 118.756 79.5069C121.134 75.1227 109.987 78.095 109.987 78.095Z" fill="#EF6E4B"/>
<path d="M104.86 78.318C104.86 78.318 102.036 76.5346 102.408 79.284C102.78 82.0334 105.826 83.0737 106.198 81.9591C106.569 80.8444 104.86 78.318 104.86 78.318Z" fill="#FF8B66"/>
<path d="M120.985 74.8998C120.985 74.8998 122.768 72.0761 123.66 74.6769C124.552 77.2777 122.174 79.5812 121.357 78.7638C120.539 77.9464 120.985 74.8998 120.985 74.8998Z" fill="#FF8B66"/>
<path d="M115.189 87.8294C110.062 88.944 106.495 86.2689 104.266 76.3116C103.077 71.1101 105.009 67.3947 110.731 66.1314C116.452 64.8682 119.499 67.469 120.688 72.5962C123.066 83.3709 120.465 86.6405 115.189 87.8294Z" fill="#FF8B66"/>
<path d="M119.796 76.5346C119.841 76.6711 119.858 76.8155 119.844 76.9586C119.831 77.1017 119.788 77.2405 119.718 77.3662C119.648 77.4919 119.553 77.6017 119.438 77.6888C119.324 77.7759 119.193 77.8383 119.053 77.8721C118.805 78.0119 118.512 78.0512 118.236 77.9821C117.96 77.913 117.72 77.7407 117.567 77.5006C117.494 77.215 117.529 76.9124 117.666 76.6515C117.804 76.3906 118.033 76.19 118.31 76.0887C118.57 75.9728 118.863 75.954 119.136 76.0358C119.409 76.1176 119.643 76.2946 119.796 76.5346Z" fill="#DB614D"/>
<path d="M109.393 79.2097C109.394 79.4928 109.286 79.7656 109.093 79.9727C108.9 80.1797 108.635 80.3054 108.353 80.3243C107.684 80.3986 107.089 80.1014 107.015 79.5812C106.941 79.061 107.387 78.5409 108.055 78.3923C108.34 78.3431 108.632 78.399 108.878 78.5493C109.124 78.6997 109.307 78.9344 109.393 79.2097Z" fill="#DB614D"/>
<path d="M116.229 71.9275H116.081C115.449 71.5715 114.706 71.4655 114 71.6302C113.931 71.6562 113.854 71.6553 113.786 71.6278C113.717 71.6003 113.661 71.5482 113.629 71.4816C113.629 71.333 113.703 71.1844 113.851 71.1844C114.271 71.0626 114.711 71.0262 115.145 71.0772C115.579 71.1283 115.998 71.2658 116.378 71.4816C116.527 71.5559 116.527 71.7045 116.452 71.8532L116.229 71.9275Z" fill="#0E3944"/>
<path d="M106.644 74.0824H106.495C106.346 74.0081 106.346 73.8595 106.421 73.7109C106.952 73.003 107.714 72.5035 108.576 72.299C108.724 72.299 108.873 72.3733 108.873 72.5219C108.873 72.6705 108.798 72.8192 108.65 72.8192C107.934 72.9925 107.302 73.4137 106.866 74.0081L106.644 74.0824Z" fill="#0E3944"/>
<path d="M116.452 74.6769C116.601 75.3456 116.452 75.9401 116.081 76.0144C115.709 76.0887 115.338 75.6429 115.189 74.9741C115.04 74.3053 115.189 73.7852 115.561 73.7109C115.932 73.6365 116.304 74.0824 116.452 74.6769Z" fill="#1A4850"/>
<path d="M109.393 76.3116C109.542 76.9061 109.319 77.5006 109.021 77.5749C108.724 77.6492 108.278 77.2033 108.13 76.5346C107.981 75.8658 108.13 75.3456 108.501 75.2713C108.873 75.197 109.244 75.6429 109.393 76.3116Z" fill="#1A4850"/>
<path d="M111.845 82.0334C113.58 82.0339 115.28 81.5445 116.749 80.6215C116.749 80.6215 117.344 84.4112 114.743 84.7085C112.142 85.0057 111.845 82.0334 111.845 82.0334Z" fill="#1A4850"/>
<path d="M114.669 74.7512C114.669 74.7512 114.817 73.1164 115.412 73.0421C116.006 72.9678 116.824 74.3053 116.824 74.3053L117.641 73.6365L116.749 73.9338C116.749 73.9338 115.932 72.6705 115.338 72.7449C114.743 72.8192 114.669 74.7512 114.669 74.7512Z" fill="#1A4850"/>
<path d="M109.764 76.0887C109.764 76.0887 108.947 74.6026 108.353 74.8255C107.758 75.0484 107.61 76.5346 107.61 76.5346L106.569 76.2373H107.535C107.535 76.2373 107.684 74.7512 108.278 74.6026C108.873 74.4539 109.764 76.0887 109.764 76.0887Z" fill="#1A4850"/>
<path d="M113.331 79.284L113.034 78.7638C113.48 78.5409 113.554 78.2437 113.48 78.0207C113.464 77.8882 113.404 77.7649 113.31 77.6705C113.216 77.5762 113.092 77.5163 112.96 77.5006L112.737 77.7235L112.217 77.5749C112.44 76.9061 112.885 76.9061 113.034 76.9061C113.294 76.9582 113.531 77.0908 113.711 77.2849C113.891 77.4791 114.006 77.725 114.039 77.988C114.072 78.251 114.021 78.5176 113.894 78.7502C113.767 78.9827 113.57 79.1695 113.331 79.284Z" fill="#DB614D"/>
<path d="M105.306 80.1014C104.858 78.3967 104.56 76.6563 104.414 74.8998C104.261 73.1246 104.713 71.3499 105.699 69.8653C106.684 68.3807 108.143 67.274 109.839 66.7259C111.164 66.3365 112.548 66.1856 113.926 66.28C115.051 66.3951 116.125 66.8065 117.038 67.4723C117.952 68.1381 118.673 69.0344 119.127 70.0698C120.141 72.2581 120.914 74.5505 121.431 76.9061C121.997 74.4391 122.022 71.8787 121.505 69.401C120.614 64.7939 116.898 61.0042 108.204 62.8619C100.699 64.4966 97.5036 73.4879 105.306 80.1014Z" fill="#1A4850"/>
<path d="M116.155 65.1654C116.155 65.1654 115.189 72.299 105.529 73.1907C105.529 73.1907 111.399 71.1101 111.399 66.9488C111.399 66.9488 109.096 72.2247 103.523 71.6302C103.523 71.6302 103.002 63.1591 116.155 65.1654Z" fill="#1A4850"/>
<path d="M86.7289 92.5108C91.4847 93.8484 94.6056 101.502 93.6396 102.394C92.6736 103.286 70.4554 107.521 70.4554 107.521L83.9795 126.99L81.676 130.334C81.676 130.334 60.5724 111.682 60.7211 105.292C60.8697 98.9013 86.7289 92.5108 86.7289 92.5108Z" fill="#FF8B66"/>
<path d="M84.0538 126.47C85.651 126.634 87.2384 126.882 88.8096 127.213C90.6673 127.659 93.1194 128.179 93.1937 128.55C93.2681 128.922 89.1068 128.55 89.1068 128.55C89.1068 128.55 92.525 129.962 92.5993 130.482C92.6736 131.002 88.2894 130.111 88.2894 130.111C88.2894 130.111 91.0388 131.746 90.8902 132.266C90.7416 132.786 87.3234 131.523 87.3234 131.523C87.6596 132.358 88.083 133.155 88.5866 133.901C88.5866 133.901 87.9922 134.272 86.5803 132.786C85.1685 131.3 83.1621 131.82 81.4531 130.482C79.744 129.145 82.4934 126.247 84.0538 126.47Z" fill="#FF8B66"/>
<path d="M87.2491 90.2073C87.2491 90.2073 95.4973 91.1733 95.8688 103.36C96.2404 115.546 77.8119 111.608 77.8119 111.608C77.8119 111.608 82.2704 116.81 80.9329 122.606C80.9329 122.606 75.8799 122.531 76.0285 125.058C76.0285 125.058 68.3005 125.578 60.721 115.026C53.1416 104.474 63.7677 92.8081 87.2491 90.2073Z" fill="#0C476B"/>
<path d="M129.159 101.874C129.679 103.657 129.233 105.366 128.193 105.738C127.153 106.109 125.815 104.846 125.295 103.063C124.775 101.279 125.146 99.5701 126.187 99.1986C127.227 98.827 128.564 100.09 129.159 101.874Z" fill="#0C476B"/>
<path d="M105.474 104.217C105.567 102.167 104.28 100.444 102.599 100.367C100.918 100.291 99.4802 101.891 99.3871 103.941C99.2941 105.99 100.581 107.714 102.262 107.79C103.943 107.867 105.381 106.267 105.474 104.217Z" fill="#0C476B"/>
<path d="M77.7376 99.05C75.8056 99.4958 73.8736 98.5298 73.5021 96.895C73.1305 95.2602 74.3938 93.4768 76.4001 93.031C78.4064 92.5851 80.3384 93.6255 80.71 95.2602C81.0815 96.895 79.744 98.6041 77.7376 99.05Z" fill="#105E99"/>
<path d="M87.472 243.579C87.472 243.579 90.2957 239.864 96.1661 242.836C96.1661 242.836 96.389 245.437 93.6396 244.917C90.8902 244.397 89.3297 246.403 87.472 243.579Z" fill="#105E99"/>
<path d="M148.702 244.248C144.987 246.032 137.259 241.796 137.259 241.796C138.447 242.019 140.305 240.979 141.42 240.31C143.5 241.796 147.216 242.168 148.702 244.248Z" fill="#105E99"/>
</g>
<defs>
<clipPath id="clip0_36_1171">
<rect width="320.64" height="248.933" fill="white" transform="translate(0.680023 0.220032)"/>
</clipPath>
</defs>
</svg>
